<svg version="1.1" xmlns:xlink="http://www.w3.org/1999/xlink" xmlns="http://www.w3.org/2000/svg" height="844" width="1500">
<line x1="1003" y1="617" x2="868" y2="562" style="stroke:rgb(0,0,0);stroke-width:1" />
<line x1="868" y1="562" x2="631" y2="562" style="stroke:rgb(0,0,0);stroke-width:1" />
<line x1="631" y1="562" x2="1003" y2="617" style="stroke:rgb(0,0,0);stroke-width:1" />
<line x1="1003" y1="617" x2="496" y2="617" style="stroke:rgb(0,0,0);stroke-width:1" />
<line x1="496" y1="617" x2="631" y2="562" style="stroke:rgb(0,0,0);stroke-width:1" />
<line x1="631" y1="562" x2="1003" y2="617" style="stroke:rgb(0,0,0);stroke-width:1" />
<line x1="1003" y1="617" x2="868" y2="562" style="stroke:rgb(0,0,0);stroke-width:1" />
<line x1="868" y1="562" x2="750" y2="165" style="stroke:rgb(0,0,0);stroke-width:1" />
<line x1="750" y1="165" x2="1003" y2="617" style="stroke:rgb(0,0,0);stroke-width:1" />
<line x1="868" y1="562" x2="631" y2="562" style="stroke:rgb(0,0,0);stroke-width:1" />
<line x1="631" y1="562" x2="750" y2="165" style="stroke:rgb(0,0,0);stroke-width:1" />
<line x1="750" y1="165" x2="868" y2="562" style="stroke:rgb(0,0,0);stroke-width:1" />
<line x1="631" y1="562" x2="496" y2="617" style="stroke:rgb(0,0,0);stroke-width:1" />
<line x1="496" y1="617" x2="750" y2="165" style="stroke:rgb(0,0,0);stroke-width:1" />
<line x1="750" y1="165" x2="631" y2="562" style="stroke:rgb(0,0,0);stroke-width:1" />
<line x1="496" y1="617" x2="1003" y2="617" style="stroke:rgb(0,0,0);stroke-width:1" />
<line x1="1003" y1="617" x2="750" y2="165" style="stroke:rgb(0,0,0);stroke-width:1" />
<line x1="750" y1="165" x2="496" y2="617" style="stroke:rgb(0,0,0);stroke-width:1" />
</svg>
