<svg version="1.1" xmlns:xlink="http://www.w3.org/1999/xlink" xmlns="http://www.w3.org/2000/svg" height="844" width="1500">
<line x1="939" y1="571" x2="705" y2="558" style="stroke:rgb(0,0,0);stroke-width:1" />
<line x1="705" y1="558" x2="493" y2="591" style="stroke:rgb(0,0,0);stroke-width:1" />
<line x1="493" y1="591" x2="939" y2="571" style="stroke:rgb(0,0,0);stroke-width:1" />
<line x1="939" y1="571" x2="881" y2="644" style="stroke:rgb(0,0,0);stroke-width:1" />
<line x1="881" y1="644" x2="493" y2="591" style="stroke:rgb(0,0,0);stroke-width:1" />
<line x1="493" y1="591" x2="939" y2="571" style="stroke:rgb(0,0,0);stroke-width:1" />
<line x1="939" y1="571" x2="705" y2="558" style="stroke:rgb(0,0,0);stroke-width:1" />
<line x1="705" y1="558" x2="750" y2="165" style="stroke:rgb(0,0,0);stroke-width:1" />
<line x1="750" y1="165" x2="939" y2="571" style="stroke:rgb(0,0,0);stroke-width:1" />
<line x1="705" y1="558" x2="493" y2="591" style="stroke:rgb(0,0,0);stroke-width:1" />
<line x1="493" y1="591" x2="750" y2="165" style="stroke:rgb(0,0,0);stroke-width:1" />
<line x1="750" y1="165" x2="705" y2="558" style="stroke:rgb(0,0,0);stroke-width:1" />
<line x1="493" y1="591" x2="881" y2="644" style="stroke:rgb(0,0,0);stroke-width:1" />
<line x1="881" y1="644" x2="750" y2="165" style="stroke:rgb(0,0,0);stroke-width:1" />
<line x1="750" y1="165" x2="493" y2="591" style="stroke:rgb(0,0,0);stroke-width:1" />
<line x1="881" y1="644" x2="939" y2="571" style="stroke:rgb(0,0,0);stroke-width:1" />
<line x1="939" y1="571" x2="750" y2="165" style="stroke:rgb(0,0,0);stroke-width:1" />
<line x1="750" y1="165" x2="881" y2="644" style="stroke:rgb(0,0,0);stroke-width:1" />
</svg>
