<svg version="1.1" xmlns:xlink="http://www.w3.org/1999/xlink" xmlns="http://www.w3.org/2000/svg" height="844" width="1500">
<line x1="963" y1="575" x2="731" y2="557" style="stroke:rgb(0,0,0);stroke-width:1" />
<line x1="731" y1="557" x2="508" y2="584" style="stroke:rgb(0,0,0);stroke-width:1" />
<line x1="508" y1="584" x2="963" y2="575" style="stroke:rgb(0,0,0);stroke-width:1" />
<line x1="963" y1="575" x2="806" y2="649" style="stroke:rgb(0,0,0);stroke-width:1" />
<line x1="806" y1="649" x2="508" y2="584" style="stroke:rgb(0,0,0);stroke-width:1" />
<line x1="508" y1="584" x2="963" y2="575" style="stroke:rgb(0,0,0);stroke-width:1" />
<line x1="963" y1="575" x2="731" y2="557" style="stroke:rgb(0,0,0);stroke-width:1" />
<line x1="731" y1="557" x2="750" y2="165" style="stroke:rgb(0,0,0);stroke-width:1" />
<line x1="750" y1="165" x2="963" y2="575" style="stroke:rgb(0,0,0);stroke-width:1" />
<line x1="731" y1="557" x2="508" y2="584" style="stroke:rgb(0,0,0);stroke-width:1" />
<line x1="508" y1="584" x2="750" y2="165" style="stroke:rgb(0,0,0);stroke-width:1" />
<line x1="750" y1="165" x2="731" y2="557" style="stroke:rgb(0,0,0);stroke-width:1" />
<line x1="508" y1="584" x2="806" y2="649" style="stroke:rgb(0,0,0);stroke-width:1" />
<line x1="806" y1="649" x2="750" y2="165" style="stroke:rgb(0,0,0);stroke-width:1" />
<line x1="750" y1="165" x2="508" y2="584" style="stroke:rgb(0,0,0);stroke-width:1" />
<line x1="806" y1="649" x2="963" y2="575" style="stroke:rgb(0,0,0);stroke-width:1" />
<line x1="963" y1="575" x2="750" y2="165" style="stroke:rgb(0,0,0);stroke-width:1" />
<line x1="750" y1="165" x2="806" y2="649" style="stroke:rgb(0,0,0);stroke-width:1" />
</svg>
