<svg version="1.1" xmlns:xlink="http://www.w3.org/1999/xlink" xmlns="http://www.w3.org/2000/svg" height="844" width="1500">
<line x1="899" y1="565" x2="663" y2="559" style="stroke:rgb(0,0,0);stroke-width:1" />
<line x1="663" y1="559" x2="483" y2="605" style="stroke:rgb(0,0,0);stroke-width:1" />
<line x1="483" y1="605" x2="899" y2="565" style="stroke:rgb(0,0,0);stroke-width:1" />
<line x1="899" y1="565" x2="968" y2="630" style="stroke:rgb(0,0,0);stroke-width:1" />
<line x1="968" y1="630" x2="483" y2="605" style="stroke:rgb(0,0,0);stroke-width:1" />
<line x1="483" y1="605" x2="899" y2="565" style="stroke:rgb(0,0,0);stroke-width:1" />
<line x1="899" y1="565" x2="663" y2="559" style="stroke:rgb(0,0,0);stroke-width:1" />
<line x1="663" y1="559" x2="750" y2="165" style="stroke:rgb(0,0,0);stroke-width:1" />
<line x1="750" y1="165" x2="899" y2="565" style="stroke:rgb(0,0,0);stroke-width:1" />
<line x1="663" y1="559" x2="483" y2="605" style="stroke:rgb(0,0,0);stroke-width:1" />
<line x1="483" y1="605" x2="750" y2="165" style="stroke:rgb(0,0,0);stroke-width:1" />
<line x1="750" y1="165" x2="663" y2="559" style="stroke:rgb(0,0,0);stroke-width:1" />
<line x1="483" y1="605" x2="968" y2="630" style="stroke:rgb(0,0,0);stroke-width:1" />
<line x1="968" y1="630" x2="750" y2="165" style="stroke:rgb(0,0,0);stroke-width:1" />
<line x1="750" y1="165" x2="483" y2="605" style="stroke:rgb(0,0,0);stroke-width:1" />
<line x1="968" y1="630" x2="899" y2="565" style="stroke:rgb(0,0,0);stroke-width:1" />
<line x1="899" y1="565" x2="750" y2="165" style="stroke:rgb(0,0,0);stroke-width:1" />
<line x1="750" y1="165" x2="968" y2="630" style="stroke:rgb(0,0,0);stroke-width:1" />
</svg>
