<svg version="1.1" xmlns:xlink="http://www.w3.org/1999/xlink" xmlns="http://www.w3.org/2000/svg" height="844" width="1500">
<line x1="610" y1="564" x2="516" y2="626" style="stroke:rgb(0,0,0);stroke-width:1" />
<line x1="516" y1="626" x2="1014" y2="609" style="stroke:rgb(0,0,0);stroke-width:1" />
<line x1="1014" y1="609" x2="610" y2="564" style="stroke:rgb(0,0,0);stroke-width:1" />
<line x1="610" y1="564" x2="847" y2="560" style="stroke:rgb(0,0,0);stroke-width:1" />
<line x1="847" y1="560" x2="1014" y2="609" style="stroke:rgb(0,0,0);stroke-width:1" />
<line x1="1014" y1="609" x2="610" y2="564" style="stroke:rgb(0,0,0);stroke-width:1" />
<line x1="610" y1="564" x2="516" y2="626" style="stroke:rgb(0,0,0);stroke-width:1" />
<line x1="516" y1="626" x2="750" y2="165" style="stroke:rgb(0,0,0);stroke-width:1" />
<line x1="750" y1="165" x2="610" y2="564" style="stroke:rgb(0,0,0);stroke-width:1" />
<line x1="516" y1="626" x2="1014" y2="609" style="stroke:rgb(0,0,0);stroke-width:1" />
<line x1="1014" y1="609" x2="750" y2="165" style="stroke:rgb(0,0,0);stroke-width:1" />
<line x1="750" y1="165" x2="516" y2="626" style="stroke:rgb(0,0,0);stroke-width:1" />
<line x1="1014" y1="609" x2="847" y2="560" style="stroke:rgb(0,0,0);stroke-width:1" />
<line x1="847" y1="560" x2="750" y2="165" style="stroke:rgb(0,0,0);stroke-width:1" />
<line x1="750" y1="165" x2="1014" y2="609" style="stroke:rgb(0,0,0);stroke-width:1" />
<line x1="847" y1="560" x2="610" y2="564" style="stroke:rgb(0,0,0);stroke-width:1" />
<line x1="610" y1="564" x2="750" y2="165" style="stroke:rgb(0,0,0);stroke-width:1" />
<line x1="750" y1="165" x2="847" y2="560" style="stroke:rgb(0,0,0);stroke-width:1" />
</svg>
