<svg version="1.1" xmlns:xlink="http://www.w3.org/1999/xlink" xmlns="http://www.w3.org/2000/svg" height="844" width="1500">
<line x1="999" y1="619" x2="873" y2="562" style="stroke:rgb(0,0,0);stroke-width:1" />
<line x1="873" y1="562" x2="636" y2="561" style="stroke:rgb(0,0,0);stroke-width:1" />
<line x1="636" y1="561" x2="999" y2="619" style="stroke:rgb(0,0,0);stroke-width:1" />
<line x1="999" y1="619" x2="492" y2="615" style="stroke:rgb(0,0,0);stroke-width:1" />
<line x1="492" y1="615" x2="636" y2="561" style="stroke:rgb(0,0,0);stroke-width:1" />
<line x1="636" y1="561" x2="999" y2="619" style="stroke:rgb(0,0,0);stroke-width:1" />
<line x1="999" y1="619" x2="873" y2="562" style="stroke:rgb(0,0,0);stroke-width:1" />
<line x1="873" y1="562" x2="750" y2="165" style="stroke:rgb(0,0,0);stroke-width:1" />
<line x1="750" y1="165" x2="999" y2="619" style="stroke:rgb(0,0,0);stroke-width:1" />
<line x1="873" y1="562" x2="636" y2="561" style="stroke:rgb(0,0,0);stroke-width:1" />
<line x1="636" y1="561" x2="750" y2="165" style="stroke:rgb(0,0,0);stroke-width:1" />
<line x1="750" y1="165" x2="873" y2="562" style="stroke:rgb(0,0,0);stroke-width:1" />
<line x1="636" y1="561" x2="492" y2="615" style="stroke:rgb(0,0,0);stroke-width:1" />
<line x1="492" y1="615" x2="750" y2="165" style="stroke:rgb(0,0,0);stroke-width:1" />
<line x1="750" y1="165" x2="636" y2="561" style="stroke:rgb(0,0,0);stroke-width:1" />
<line x1="492" y1="615" x2="999" y2="619" style="stroke:rgb(0,0,0);stroke-width:1" />
<line x1="999" y1="619" x2="750" y2="165" style="stroke:rgb(0,0,0);stroke-width:1" />
<line x1="750" y1="165" x2="492" y2="615" style="stroke:rgb(0,0,0);stroke-width:1" />
</svg>
