<svg version="1.1" xmlns:xlink="http://www.w3.org/1999/xlink" xmlns="http://www.w3.org/2000/svg" height="844" width="1500">
<line x1="838" y1="647" x2="953" y2="573" style="stroke:rgb(0,0,0);stroke-width:1" />
<line x1="953" y1="573" x2="721" y2="557" style="stroke:rgb(0,0,0);stroke-width:1" />
<line x1="721" y1="557" x2="838" y2="647" style="stroke:rgb(0,0,0);stroke-width:1" />
<line x1="838" y1="647" x2="501" y2="587" style="stroke:rgb(0,0,0);stroke-width:1" />
<line x1="501" y1="587" x2="721" y2="557" style="stroke:rgb(0,0,0);stroke-width:1" />
<line x1="721" y1="557" x2="838" y2="647" style="stroke:rgb(0,0,0);stroke-width:1" />
<line x1="838" y1="647" x2="953" y2="573" style="stroke:rgb(0,0,0);stroke-width:1" />
<line x1="953" y1="573" x2="750" y2="165" style="stroke:rgb(0,0,0);stroke-width:1" />
<line x1="750" y1="165" x2="838" y2="647" style="stroke:rgb(0,0,0);stroke-width:1" />
<line x1="953" y1="573" x2="721" y2="557" style="stroke:rgb(0,0,0);stroke-width:1" />
<line x1="721" y1="557" x2="750" y2="165" style="stroke:rgb(0,0,0);stroke-width:1" />
<line x1="750" y1="165" x2="953" y2="573" style="stroke:rgb(0,0,0);stroke-width:1" />
<line x1="721" y1="557" x2="501" y2="587" style="stroke:rgb(0,0,0);stroke-width:1" />
<line x1="501" y1="587" x2="750" y2="165" style="stroke:rgb(0,0,0);stroke-width:1" />
<line x1="750" y1="165" x2="721" y2="557" style="stroke:rgb(0,0,0);stroke-width:1" />
<line x1="501" y1="587" x2="838" y2="647" style="stroke:rgb(0,0,0);stroke-width:1" />
<line x1="838" y1="647" x2="750" y2="165" style="stroke:rgb(0,0,0);stroke-width:1" />
<line x1="750" y1="165" x2="501" y2="587" style="stroke:rgb(0,0,0);stroke-width:1" />
</svg>
