<svg version="1.1" xmlns:xlink="http://www.w3.org/1999/xlink" xmlns="http://www.w3.org/2000/svg" height="844" width="1500">
<line x1="789" y1="557" x2="555" y2="572" style="stroke:rgb(0,0,0);stroke-width:1" />
<line x1="555" y1="572" x2="632" y2="645" style="stroke:rgb(0,0,0);stroke-width:1" />
<line x1="632" y1="645" x2="789" y2="557" style="stroke:rgb(0,0,0);stroke-width:1" />
<line x1="789" y1="557" x2="1004" y2="590" style="stroke:rgb(0,0,0);stroke-width:1" />
<line x1="1004" y1="590" x2="632" y2="645" style="stroke:rgb(0,0,0);stroke-width:1" />
<line x1="632" y1="645" x2="789" y2="557" style="stroke:rgb(0,0,0);stroke-width:1" />
<line x1="789" y1="557" x2="555" y2="572" style="stroke:rgb(0,0,0);stroke-width:1" />
<line x1="555" y1="572" x2="750" y2="165" style="stroke:rgb(0,0,0);stroke-width:1" />
<line x1="750" y1="165" x2="789" y2="557" style="stroke:rgb(0,0,0);stroke-width:1" />
<line x1="555" y1="572" x2="632" y2="645" style="stroke:rgb(0,0,0);stroke-width:1" />
<line x1="632" y1="645" x2="750" y2="165" style="stroke:rgb(0,0,0);stroke-width:1" />
<line x1="750" y1="165" x2="555" y2="572" style="stroke:rgb(0,0,0);stroke-width:1" />
<line x1="632" y1="645" x2="1004" y2="590" style="stroke:rgb(0,0,0);stroke-width:1" />
<line x1="1004" y1="590" x2="750" y2="165" style="stroke:rgb(0,0,0);stroke-width:1" />
<line x1="750" y1="165" x2="632" y2="645" style="stroke:rgb(0,0,0);stroke-width:1" />
<line x1="1004" y1="590" x2="789" y2="557" style="stroke:rgb(0,0,0);stroke-width:1" />
<line x1="789" y1="557" x2="750" y2="165" style="stroke:rgb(0,0,0);stroke-width:1" />
<line x1="750" y1="165" x2="1004" y2="590" style="stroke:rgb(0,0,0);stroke-width:1" />
</svg>
