<svg version="1.1" xmlns:xlink="http://www.w3.org/1999/xlink" xmlns="http://www.w3.org/2000/svg" height="844" width="1500">
<line x1="1005" y1="616" x2="865" y2="562" style="stroke:rgb(0,0,0);stroke-width:1" />
<line x1="865" y1="562" x2="629" y2="562" style="stroke:rgb(0,0,0);stroke-width:1" />
<line x1="629" y1="562" x2="1005" y2="616" style="stroke:rgb(0,0,0);stroke-width:1" />
<line x1="1005" y1="616" x2="498" y2="618" style="stroke:rgb(0,0,0);stroke-width:1" />
<line x1="498" y1="618" x2="629" y2="562" style="stroke:rgb(0,0,0);stroke-width:1" />
<line x1="629" y1="562" x2="1005" y2="616" style="stroke:rgb(0,0,0);stroke-width:1" />
<line x1="1005" y1="616" x2="865" y2="562" style="stroke:rgb(0,0,0);stroke-width:1" />
<line x1="865" y1="562" x2="750" y2="165" style="stroke:rgb(0,0,0);stroke-width:1" />
<line x1="750" y1="165" x2="1005" y2="616" style="stroke:rgb(0,0,0);stroke-width:1" />
<line x1="865" y1="562" x2="629" y2="562" style="stroke:rgb(0,0,0);stroke-width:1" />
<line x1="629" y1="562" x2="750" y2="165" style="stroke:rgb(0,0,0);stroke-width:1" />
<line x1="750" y1="165" x2="865" y2="562" style="stroke:rgb(0,0,0);stroke-width:1" />
<line x1="629" y1="562" x2="498" y2="618" style="stroke:rgb(0,0,0);stroke-width:1" />
<line x1="498" y1="618" x2="750" y2="165" style="stroke:rgb(0,0,0);stroke-width:1" />
<line x1="750" y1="165" x2="629" y2="562" style="stroke:rgb(0,0,0);stroke-width:1" />
<line x1="498" y1="618" x2="1005" y2="616" style="stroke:rgb(0,0,0);stroke-width:1" />
<line x1="1005" y1="616" x2="750" y2="165" style="stroke:rgb(0,0,0);stroke-width:1" />
<line x1="750" y1="165" x2="498" y2="618" style="stroke:rgb(0,0,0);stroke-width:1" />
</svg>
