<svg version="1.1" xmlns:xlink="http://www.w3.org/1999/xlink" xmlns="http://www.w3.org/2000/svg" height="844" width="1500">
<line x1="799" y1="558" x2="565" y2="570" style="stroke:rgb(0,0,0);stroke-width:1" />
<line x1="565" y1="570" x2="605" y2="642" style="stroke:rgb(0,0,0);stroke-width:1" />
<line x1="605" y1="642" x2="799" y2="558" style="stroke:rgb(0,0,0);stroke-width:1" />
<line x1="799" y1="558" x2="1009" y2="593" style="stroke:rgb(0,0,0);stroke-width:1" />
<line x1="1009" y1="593" x2="605" y2="642" style="stroke:rgb(0,0,0);stroke-width:1" />
<line x1="605" y1="642" x2="799" y2="558" style="stroke:rgb(0,0,0);stroke-width:1" />
<line x1="799" y1="558" x2="565" y2="570" style="stroke:rgb(0,0,0);stroke-width:1" />
<line x1="565" y1="570" x2="750" y2="165" style="stroke:rgb(0,0,0);stroke-width:1" />
<line x1="750" y1="165" x2="799" y2="558" style="stroke:rgb(0,0,0);stroke-width:1" />
<line x1="565" y1="570" x2="605" y2="642" style="stroke:rgb(0,0,0);stroke-width:1" />
<line x1="605" y1="642" x2="750" y2="165" style="stroke:rgb(0,0,0);stroke-width:1" />
<line x1="750" y1="165" x2="565" y2="570" style="stroke:rgb(0,0,0);stroke-width:1" />
<line x1="605" y1="642" x2="1009" y2="593" style="stroke:rgb(0,0,0);stroke-width:1" />
<line x1="1009" y1="593" x2="750" y2="165" style="stroke:rgb(0,0,0);stroke-width:1" />
<line x1="750" y1="165" x2="605" y2="642" style="stroke:rgb(0,0,0);stroke-width:1" />
<line x1="1009" y1="593" x2="799" y2="558" style="stroke:rgb(0,0,0);stroke-width:1" />
<line x1="799" y1="558" x2="750" y2="165" style="stroke:rgb(0,0,0);stroke-width:1" />
<line x1="750" y1="165" x2="1009" y2="593" style="stroke:rgb(0,0,0);stroke-width:1" />
</svg>
