<svg version="1.1" xmlns:xlink="http://www.w3.org/1999/xlink" xmlns="http://www.w3.org/2000/svg" height="844" width="1500">
<line x1="813" y1="558" x2="577" y2="568" style="stroke:rgb(0,0,0);stroke-width:1" />
<line x1="577" y1="568" x2="574" y2="638" style="stroke:rgb(0,0,0);stroke-width:1" />
<line x1="574" y1="638" x2="813" y2="558" style="stroke:rgb(0,0,0);stroke-width:1" />
<line x1="813" y1="558" x2="1013" y2="597" style="stroke:rgb(0,0,0);stroke-width:1" />
<line x1="1013" y1="597" x2="574" y2="638" style="stroke:rgb(0,0,0);stroke-width:1" />
<line x1="574" y1="638" x2="813" y2="558" style="stroke:rgb(0,0,0);stroke-width:1" />
<line x1="813" y1="558" x2="577" y2="568" style="stroke:rgb(0,0,0);stroke-width:1" />
<line x1="577" y1="568" x2="750" y2="165" style="stroke:rgb(0,0,0);stroke-width:1" />
<line x1="750" y1="165" x2="813" y2="558" style="stroke:rgb(0,0,0);stroke-width:1" />
<line x1="577" y1="568" x2="574" y2="638" style="stroke:rgb(0,0,0);stroke-width:1" />
<line x1="574" y1="638" x2="750" y2="165" style="stroke:rgb(0,0,0);stroke-width:1" />
<line x1="750" y1="165" x2="577" y2="568" style="stroke:rgb(0,0,0);stroke-width:1" />
<line x1="574" y1="638" x2="1013" y2="597" style="stroke:rgb(0,0,0);stroke-width:1" />
<line x1="1013" y1="597" x2="750" y2="165" style="stroke:rgb(0,0,0);stroke-width:1" />
<line x1="750" y1="165" x2="574" y2="638" style="stroke:rgb(0,0,0);stroke-width:1" />
<line x1="1013" y1="597" x2="813" y2="558" style="stroke:rgb(0,0,0);stroke-width:1" />
<line x1="813" y1="558" x2="750" y2="165" style="stroke:rgb(0,0,0);stroke-width:1" />
<line x1="750" y1="165" x2="1013" y2="597" style="stroke:rgb(0,0,0);stroke-width:1" />
</svg>
