<svg version="1.1" xmlns:xlink="http://www.w3.org/1999/xlink" xmlns="http://www.w3.org/2000/svg" height="844" width="1500">
<line x1="701" y1="649" x2="989" y2="583" style="stroke:rgb(0,0,0);stroke-width:1" />
<line x1="989" y1="583" x2="765" y2="557" style="stroke:rgb(0,0,0);stroke-width:1" />
<line x1="765" y1="557" x2="701" y2="649" style="stroke:rgb(0,0,0);stroke-width:1" />
<line x1="701" y1="649" x2="534" y2="576" style="stroke:rgb(0,0,0);stroke-width:1" />
<line x1="534" y1="576" x2="765" y2="557" style="stroke:rgb(0,0,0);stroke-width:1" />
<line x1="765" y1="557" x2="701" y2="649" style="stroke:rgb(0,0,0);stroke-width:1" />
<line x1="701" y1="649" x2="989" y2="583" style="stroke:rgb(0,0,0);stroke-width:1" />
<line x1="989" y1="583" x2="750" y2="165" style="stroke:rgb(0,0,0);stroke-width:1" />
<line x1="750" y1="165" x2="701" y2="649" style="stroke:rgb(0,0,0);stroke-width:1" />
<line x1="989" y1="583" x2="765" y2="557" style="stroke:rgb(0,0,0);stroke-width:1" />
<line x1="765" y1="557" x2="750" y2="165" style="stroke:rgb(0,0,0);stroke-width:1" />
<line x1="750" y1="165" x2="989" y2="583" style="stroke:rgb(0,0,0);stroke-width:1" />
<line x1="765" y1="557" x2="534" y2="576" style="stroke:rgb(0,0,0);stroke-width:1" />
<line x1="534" y1="576" x2="750" y2="165" style="stroke:rgb(0,0,0);stroke-width:1" />
<line x1="750" y1="165" x2="765" y2="557" style="stroke:rgb(0,0,0);stroke-width:1" />
<line x1="534" y1="576" x2="701" y2="649" style="stroke:rgb(0,0,0);stroke-width:1" />
<line x1="701" y1="649" x2="750" y2="165" style="stroke:rgb(0,0,0);stroke-width:1" />
<line x1="750" y1="165" x2="534" y2="576" style="stroke:rgb(0,0,0);stroke-width:1" />
</svg>
