<svg version="1.1" xmlns:xlink="http://www.w3.org/1999/xlink" xmlns="http://www.w3.org/2000/svg" height="844" width="1500">
<line x1="734" y1="557" x2="510" y2="583" style="stroke:rgb(0,0,0);stroke-width:1" />
<line x1="510" y1="583" x2="798" y2="649" style="stroke:rgb(0,0,0);stroke-width:1" />
<line x1="798" y1="649" x2="734" y2="557" style="stroke:rgb(0,0,0);stroke-width:1" />
<line x1="734" y1="557" x2="965" y2="576" style="stroke:rgb(0,0,0);stroke-width:1" />
<line x1="965" y1="576" x2="798" y2="649" style="stroke:rgb(0,0,0);stroke-width:1" />
<line x1="798" y1="649" x2="734" y2="557" style="stroke:rgb(0,0,0);stroke-width:1" />
<line x1="734" y1="557" x2="510" y2="583" style="stroke:rgb(0,0,0);stroke-width:1" />
<line x1="510" y1="583" x2="750" y2="165" style="stroke:rgb(0,0,0);stroke-width:1" />
<line x1="750" y1="165" x2="734" y2="557" style="stroke:rgb(0,0,0);stroke-width:1" />
<line x1="510" y1="583" x2="798" y2="649" style="stroke:rgb(0,0,0);stroke-width:1" />
<line x1="798" y1="649" x2="750" y2="165" style="stroke:rgb(0,0,0);stroke-width:1" />
<line x1="750" y1="165" x2="510" y2="583" style="stroke:rgb(0,0,0);stroke-width:1" />
<line x1="798" y1="649" x2="965" y2="576" style="stroke:rgb(0,0,0);stroke-width:1" />
<line x1="965" y1="576" x2="750" y2="165" style="stroke:rgb(0,0,0);stroke-width:1" />
<line x1="750" y1="165" x2="798" y2="649" style="stroke:rgb(0,0,0);stroke-width:1" />
<line x1="965" y1="576" x2="734" y2="557" style="stroke:rgb(0,0,0);stroke-width:1" />
<line x1="734" y1="557" x2="750" y2="165" style="stroke:rgb(0,0,0);stroke-width:1" />
<line x1="750" y1="165" x2="965" y2="576" style="stroke:rgb(0,0,0);stroke-width:1" />
</svg>
