<svg version="1.1" xmlns:xlink="http://www.w3.org/1999/xlink" xmlns="http://www.w3.org/2000/svg" height="844" width="1500">
<line x1="960" y1="575" x2="728" y2="557" style="stroke:rgb(0,0,0);stroke-width:1" />
<line x1="728" y1="557" x2="506" y2="584" style="stroke:rgb(0,0,0);stroke-width:1" />
<line x1="506" y1="584" x2="960" y2="575" style="stroke:rgb(0,0,0);stroke-width:1" />
<line x1="960" y1="575" x2="814" y2="648" style="stroke:rgb(0,0,0);stroke-width:1" />
<line x1="814" y1="648" x2="506" y2="584" style="stroke:rgb(0,0,0);stroke-width:1" />
<line x1="506" y1="584" x2="960" y2="575" style="stroke:rgb(0,0,0);stroke-width:1" />
<line x1="960" y1="575" x2="728" y2="557" style="stroke:rgb(0,0,0);stroke-width:1" />
<line x1="728" y1="557" x2="750" y2="165" style="stroke:rgb(0,0,0);stroke-width:1" />
<line x1="750" y1="165" x2="960" y2="575" style="stroke:rgb(0,0,0);stroke-width:1" />
<line x1="728" y1="557" x2="506" y2="584" style="stroke:rgb(0,0,0);stroke-width:1" />
<line x1="506" y1="584" x2="750" y2="165" style="stroke:rgb(0,0,0);stroke-width:1" />
<line x1="750" y1="165" x2="728" y2="557" style="stroke:rgb(0,0,0);stroke-width:1" />
<line x1="506" y1="584" x2="814" y2="648" style="stroke:rgb(0,0,0);stroke-width:1" />
<line x1="814" y1="648" x2="750" y2="165" style="stroke:rgb(0,0,0);stroke-width:1" />
<line x1="750" y1="165" x2="506" y2="584" style="stroke:rgb(0,0,0);stroke-width:1" />
<line x1="814" y1="648" x2="960" y2="575" style="stroke:rgb(0,0,0);stroke-width:1" />
<line x1="960" y1="575" x2="750" y2="165" style="stroke:rgb(0,0,0);stroke-width:1" />
<line x1="750" y1="165" x2="814" y2="648" style="stroke:rgb(0,0,0);stroke-width:1" />
</svg>
