<svg version="1.1" xmlns:xlink="http://www.w3.org/1999/xlink" xmlns="http://www.w3.org/2000/svg" height="844" width="1500">
<line x1="677" y1="648" x2="995" y2="585" style="stroke:rgb(0,0,0);stroke-width:1" />
<line x1="995" y1="585" x2="773" y2="557" style="stroke:rgb(0,0,0);stroke-width:1" />
<line x1="773" y1="557" x2="677" y2="648" style="stroke:rgb(0,0,0);stroke-width:1" />
<line x1="677" y1="648" x2="541" y2="574" style="stroke:rgb(0,0,0);stroke-width:1" />
<line x1="541" y1="574" x2="773" y2="557" style="stroke:rgb(0,0,0);stroke-width:1" />
<line x1="773" y1="557" x2="677" y2="648" style="stroke:rgb(0,0,0);stroke-width:1" />
<line x1="677" y1="648" x2="995" y2="585" style="stroke:rgb(0,0,0);stroke-width:1" />
<line x1="995" y1="585" x2="750" y2="165" style="stroke:rgb(0,0,0);stroke-width:1" />
<line x1="750" y1="165" x2="677" y2="648" style="stroke:rgb(0,0,0);stroke-width:1" />
<line x1="995" y1="585" x2="773" y2="557" style="stroke:rgb(0,0,0);stroke-width:1" />
<line x1="773" y1="557" x2="750" y2="165" style="stroke:rgb(0,0,0);stroke-width:1" />
<line x1="750" y1="165" x2="995" y2="585" style="stroke:rgb(0,0,0);stroke-width:1" />
<line x1="773" y1="557" x2="541" y2="574" style="stroke:rgb(0,0,0);stroke-width:1" />
<line x1="541" y1="574" x2="750" y2="165" style="stroke:rgb(0,0,0);stroke-width:1" />
<line x1="750" y1="165" x2="773" y2="557" style="stroke:rgb(0,0,0);stroke-width:1" />
<line x1="541" y1="574" x2="677" y2="648" style="stroke:rgb(0,0,0);stroke-width:1" />
<line x1="677" y1="648" x2="750" y2="165" style="stroke:rgb(0,0,0);stroke-width:1" />
<line x1="750" y1="165" x2="541" y2="574" style="stroke:rgb(0,0,0);stroke-width:1" />
</svg>
