<svg version="1.1" xmlns:xlink="http://www.w3.org/1999/xlink" xmlns="http://www.w3.org/2000/svg" height="844" width="1500">
<line x1="820" y1="559" x2="585" y2="567" style="stroke:rgb(0,0,0);stroke-width:1" />
<line x1="585" y1="567" x2="558" y2="635" style="stroke:rgb(0,0,0);stroke-width:1" />
<line x1="558" y1="635" x2="820" y2="559" style="stroke:rgb(0,0,0);stroke-width:1" />
<line x1="820" y1="559" x2="1015" y2="600" style="stroke:rgb(0,0,0);stroke-width:1" />
<line x1="1015" y1="600" x2="558" y2="635" style="stroke:rgb(0,0,0);stroke-width:1" />
<line x1="558" y1="635" x2="820" y2="559" style="stroke:rgb(0,0,0);stroke-width:1" />
<line x1="820" y1="559" x2="585" y2="567" style="stroke:rgb(0,0,0);stroke-width:1" />
<line x1="585" y1="567" x2="750" y2="165" style="stroke:rgb(0,0,0);stroke-width:1" />
<line x1="750" y1="165" x2="820" y2="559" style="stroke:rgb(0,0,0);stroke-width:1" />
<line x1="585" y1="567" x2="558" y2="635" style="stroke:rgb(0,0,0);stroke-width:1" />
<line x1="558" y1="635" x2="750" y2="165" style="stroke:rgb(0,0,0);stroke-width:1" />
<line x1="750" y1="165" x2="585" y2="567" style="stroke:rgb(0,0,0);stroke-width:1" />
<line x1="558" y1="635" x2="1015" y2="600" style="stroke:rgb(0,0,0);stroke-width:1" />
<line x1="1015" y1="600" x2="750" y2="165" style="stroke:rgb(0,0,0);stroke-width:1" />
<line x1="750" y1="165" x2="558" y2="635" style="stroke:rgb(0,0,0);stroke-width:1" />
<line x1="1015" y1="600" x2="820" y2="559" style="stroke:rgb(0,0,0);stroke-width:1" />
<line x1="820" y1="559" x2="750" y2="165" style="stroke:rgb(0,0,0);stroke-width:1" />
<line x1="750" y1="165" x2="1015" y2="600" style="stroke:rgb(0,0,0);stroke-width:1" />
</svg>
