<svg version="1.1" xmlns:xlink="http://www.w3.org/1999/xlink" xmlns="http://www.w3.org/2000/svg" height="844" width="1500">
<line x1="1011" y1="594" x2="805" y2="558" style="stroke:rgb(0,0,0);stroke-width:1" />
<line x1="805" y1="558" x2="570" y2="569" style="stroke:rgb(0,0,0);stroke-width:1" />
<line x1="570" y1="569" x2="1011" y2="594" style="stroke:rgb(0,0,0);stroke-width:1" />
<line x1="1011" y1="594" x2="592" y2="641" style="stroke:rgb(0,0,0);stroke-width:1" />
<line x1="592" y1="641" x2="570" y2="569" style="stroke:rgb(0,0,0);stroke-width:1" />
<line x1="570" y1="569" x2="1011" y2="594" style="stroke:rgb(0,0,0);stroke-width:1" />
<line x1="1011" y1="594" x2="805" y2="558" style="stroke:rgb(0,0,0);stroke-width:1" />
<line x1="805" y1="558" x2="750" y2="165" style="stroke:rgb(0,0,0);stroke-width:1" />
<line x1="750" y1="165" x2="1011" y2="594" style="stroke:rgb(0,0,0);stroke-width:1" />
<line x1="805" y1="558" x2="570" y2="569" style="stroke:rgb(0,0,0);stroke-width:1" />
<line x1="570" y1="569" x2="750" y2="165" style="stroke:rgb(0,0,0);stroke-width:1" />
<line x1="750" y1="165" x2="805" y2="558" style="stroke:rgb(0,0,0);stroke-width:1" />
<line x1="570" y1="569" x2="592" y2="641" style="stroke:rgb(0,0,0);stroke-width:1" />
<line x1="592" y1="641" x2="750" y2="165" style="stroke:rgb(0,0,0);stroke-width:1" />
<line x1="750" y1="165" x2="570" y2="569" style="stroke:rgb(0,0,0);stroke-width:1" />
<line x1="592" y1="641" x2="1011" y2="594" style="stroke:rgb(0,0,0);stroke-width:1" />
<line x1="1011" y1="594" x2="750" y2="165" style="stroke:rgb(0,0,0);stroke-width:1" />
<line x1="750" y1="165" x2="592" y2="641" style="stroke:rgb(0,0,0);stroke-width:1" />
</svg>
