<svg version="1.1" xmlns:xlink="http://www.w3.org/1999/xlink" xmlns="http://www.w3.org/2000/svg" height="844" width="1500">
<line x1="883" y1="563" x2="647" y2="560" style="stroke:rgb(0,0,0);stroke-width:1" />
<line x1="647" y1="560" x2="487" y2="611" style="stroke:rgb(0,0,0);stroke-width:1" />
<line x1="487" y1="611" x2="883" y2="563" style="stroke:rgb(0,0,0);stroke-width:1" />
<line x1="883" y1="563" x2="989" y2="623" style="stroke:rgb(0,0,0);stroke-width:1" />
<line x1="989" y1="623" x2="487" y2="611" style="stroke:rgb(0,0,0);stroke-width:1" />
<line x1="487" y1="611" x2="883" y2="563" style="stroke:rgb(0,0,0);stroke-width:1" />
<line x1="883" y1="563" x2="647" y2="560" style="stroke:rgb(0,0,0);stroke-width:1" />
<line x1="647" y1="560" x2="750" y2="165" style="stroke:rgb(0,0,0);stroke-width:1" />
<line x1="750" y1="165" x2="883" y2="563" style="stroke:rgb(0,0,0);stroke-width:1" />
<line x1="647" y1="560" x2="487" y2="611" style="stroke:rgb(0,0,0);stroke-width:1" />
<line x1="487" y1="611" x2="750" y2="165" style="stroke:rgb(0,0,0);stroke-width:1" />
<line x1="750" y1="165" x2="647" y2="560" style="stroke:rgb(0,0,0);stroke-width:1" />
<line x1="487" y1="611" x2="989" y2="623" style="stroke:rgb(0,0,0);stroke-width:1" />
<line x1="989" y1="623" x2="750" y2="165" style="stroke:rgb(0,0,0);stroke-width:1" />
<line x1="750" y1="165" x2="487" y2="611" style="stroke:rgb(0,0,0);stroke-width:1" />
<line x1="989" y1="623" x2="883" y2="563" style="stroke:rgb(0,0,0);stroke-width:1" />
<line x1="883" y1="563" x2="750" y2="165" style="stroke:rgb(0,0,0);stroke-width:1" />
<line x1="750" y1="165" x2="989" y2="623" style="stroke:rgb(0,0,0);stroke-width:1" />
</svg>
