<svg version="1.1" xmlns:xlink="http://www.w3.org/1999/xlink" xmlns="http://www.w3.org/2000/svg" height="844" width="1500">
<line x1="660" y1="560" x2="484" y2="606" style="stroke:rgb(0,0,0);stroke-width:1" />
<line x1="484" y1="606" x2="972" y2="629" style="stroke:rgb(0,0,0);stroke-width:1" />
<line x1="972" y1="629" x2="660" y2="560" style="stroke:rgb(0,0,0);stroke-width:1" />
<line x1="660" y1="560" x2="896" y2="565" style="stroke:rgb(0,0,0);stroke-width:1" />
<line x1="896" y1="565" x2="972" y2="629" style="stroke:rgb(0,0,0);stroke-width:1" />
<line x1="972" y1="629" x2="660" y2="560" style="stroke:rgb(0,0,0);stroke-width:1" />
<line x1="660" y1="560" x2="484" y2="606" style="stroke:rgb(0,0,0);stroke-width:1" />
<line x1="484" y1="606" x2="750" y2="165" style="stroke:rgb(0,0,0);stroke-width:1" />
<line x1="750" y1="165" x2="660" y2="560" style="stroke:rgb(0,0,0);stroke-width:1" />
<line x1="484" y1="606" x2="972" y2="629" style="stroke:rgb(0,0,0);stroke-width:1" />
<line x1="972" y1="629" x2="750" y2="165" style="stroke:rgb(0,0,0);stroke-width:1" />
<line x1="750" y1="165" x2="484" y2="606" style="stroke:rgb(0,0,0);stroke-width:1" />
<line x1="972" y1="629" x2="896" y2="565" style="stroke:rgb(0,0,0);stroke-width:1" />
<line x1="896" y1="565" x2="750" y2="165" style="stroke:rgb(0,0,0);stroke-width:1" />
<line x1="750" y1="165" x2="972" y2="629" style="stroke:rgb(0,0,0);stroke-width:1" />
<line x1="896" y1="565" x2="660" y2="560" style="stroke:rgb(0,0,0);stroke-width:1" />
<line x1="660" y1="560" x2="750" y2="165" style="stroke:rgb(0,0,0);stroke-width:1" />
<line x1="750" y1="165" x2="896" y2="565" style="stroke:rgb(0,0,0);stroke-width:1" />
</svg>
