<svg version="1.1" xmlns:xlink="http://www.w3.org/1999/xlink" xmlns="http://www.w3.org/2000/svg" height="844" width="1500">
<line x1="973" y1="578" x2="744" y2="557" style="stroke:rgb(0,0,0);stroke-width:1" />
<line x1="744" y1="557" x2="517" y2="581" style="stroke:rgb(0,0,0);stroke-width:1" />
<line x1="517" y1="581" x2="973" y2="578" style="stroke:rgb(0,0,0);stroke-width:1" />
<line x1="973" y1="578" x2="766" y2="649" style="stroke:rgb(0,0,0);stroke-width:1" />
<line x1="766" y1="649" x2="517" y2="581" style="stroke:rgb(0,0,0);stroke-width:1" />
<line x1="517" y1="581" x2="973" y2="578" style="stroke:rgb(0,0,0);stroke-width:1" />
<line x1="973" y1="578" x2="744" y2="557" style="stroke:rgb(0,0,0);stroke-width:1" />
<line x1="744" y1="557" x2="750" y2="165" style="stroke:rgb(0,0,0);stroke-width:1" />
<line x1="750" y1="165" x2="973" y2="578" style="stroke:rgb(0,0,0);stroke-width:1" />
<line x1="744" y1="557" x2="517" y2="581" style="stroke:rgb(0,0,0);stroke-width:1" />
<line x1="517" y1="581" x2="750" y2="165" style="stroke:rgb(0,0,0);stroke-width:1" />
<line x1="750" y1="165" x2="744" y2="557" style="stroke:rgb(0,0,0);stroke-width:1" />
<line x1="517" y1="581" x2="766" y2="649" style="stroke:rgb(0,0,0);stroke-width:1" />
<line x1="766" y1="649" x2="750" y2="165" style="stroke:rgb(0,0,0);stroke-width:1" />
<line x1="750" y1="165" x2="517" y2="581" style="stroke:rgb(0,0,0);stroke-width:1" />
<line x1="766" y1="649" x2="973" y2="578" style="stroke:rgb(0,0,0);stroke-width:1" />
<line x1="973" y1="578" x2="750" y2="165" style="stroke:rgb(0,0,0);stroke-width:1" />
<line x1="750" y1="165" x2="766" y2="649" style="stroke:rgb(0,0,0);stroke-width:1" />
</svg>
