<svg version="1.1" xmlns:xlink="http://www.w3.org/1999/xlink" xmlns="http://www.w3.org/2000/svg" height="844" width="1500">
<line x1="778" y1="557" x2="546" y2="573" style="stroke:rgb(0,0,0);stroke-width:1" />
<line x1="546" y1="573" x2="661" y2="647" style="stroke:rgb(0,0,0);stroke-width:1" />
<line x1="661" y1="647" x2="778" y2="557" style="stroke:rgb(0,0,0);stroke-width:1" />
<line x1="778" y1="557" x2="998" y2="587" style="stroke:rgb(0,0,0);stroke-width:1" />
<line x1="998" y1="587" x2="661" y2="647" style="stroke:rgb(0,0,0);stroke-width:1" />
<line x1="661" y1="647" x2="778" y2="557" style="stroke:rgb(0,0,0);stroke-width:1" />
<line x1="778" y1="557" x2="546" y2="573" style="stroke:rgb(0,0,0);stroke-width:1" />
<line x1="546" y1="573" x2="750" y2="165" style="stroke:rgb(0,0,0);stroke-width:1" />
<line x1="750" y1="165" x2="778" y2="557" style="stroke:rgb(0,0,0);stroke-width:1" />
<line x1="546" y1="573" x2="661" y2="647" style="stroke:rgb(0,0,0);stroke-width:1" />
<line x1="661" y1="647" x2="750" y2="165" style="stroke:rgb(0,0,0);stroke-width:1" />
<line x1="750" y1="165" x2="546" y2="573" style="stroke:rgb(0,0,0);stroke-width:1" />
<line x1="661" y1="647" x2="998" y2="587" style="stroke:rgb(0,0,0);stroke-width:1" />
<line x1="998" y1="587" x2="750" y2="165" style="stroke:rgb(0,0,0);stroke-width:1" />
<line x1="750" y1="165" x2="661" y2="647" style="stroke:rgb(0,0,0);stroke-width:1" />
<line x1="998" y1="587" x2="778" y2="557" style="stroke:rgb(0,0,0);stroke-width:1" />
<line x1="778" y1="557" x2="750" y2="165" style="stroke:rgb(0,0,0);stroke-width:1" />
<line x1="750" y1="165" x2="998" y2="587" style="stroke:rgb(0,0,0);stroke-width:1" />
</svg>
