<svg version="1.1" xmlns:xlink="http://www.w3.org/1999/xlink" xmlns="http://www.w3.org/2000/svg" height="844" width="1500">
<line x1="1010" y1="613" x2="857" y2="561" style="stroke:rgb(0,0,0);stroke-width:1" />
<line x1="857" y1="561" x2="621" y2="563" style="stroke:rgb(0,0,0);stroke-width:1" />
<line x1="621" y1="563" x2="1010" y2="613" style="stroke:rgb(0,0,0);stroke-width:1" />
<line x1="1010" y1="613" x2="504" y2="621" style="stroke:rgb(0,0,0);stroke-width:1" />
<line x1="504" y1="621" x2="621" y2="563" style="stroke:rgb(0,0,0);stroke-width:1" />
<line x1="621" y1="563" x2="1010" y2="613" style="stroke:rgb(0,0,0);stroke-width:1" />
<line x1="1010" y1="613" x2="857" y2="561" style="stroke:rgb(0,0,0);stroke-width:1" />
<line x1="857" y1="561" x2="750" y2="165" style="stroke:rgb(0,0,0);stroke-width:1" />
<line x1="750" y1="165" x2="1010" y2="613" style="stroke:rgb(0,0,0);stroke-width:1" />
<line x1="857" y1="561" x2="621" y2="563" style="stroke:rgb(0,0,0);stroke-width:1" />
<line x1="621" y1="563" x2="750" y2="165" style="stroke:rgb(0,0,0);stroke-width:1" />
<line x1="750" y1="165" x2="857" y2="561" style="stroke:rgb(0,0,0);stroke-width:1" />
<line x1="621" y1="563" x2="504" y2="621" style="stroke:rgb(0,0,0);stroke-width:1" />
<line x1="504" y1="621" x2="750" y2="165" style="stroke:rgb(0,0,0);stroke-width:1" />
<line x1="750" y1="165" x2="621" y2="563" style="stroke:rgb(0,0,0);stroke-width:1" />
<line x1="504" y1="621" x2="1010" y2="613" style="stroke:rgb(0,0,0);stroke-width:1" />
<line x1="1010" y1="613" x2="750" y2="165" style="stroke:rgb(0,0,0);stroke-width:1" />
<line x1="750" y1="165" x2="504" y2="621" style="stroke:rgb(0,0,0);stroke-width:1" />
</svg>
