<svg version="1.1" xmlns:xlink="http://www.w3.org/1999/xlink" xmlns="http://www.w3.org/2000/svg" height="844" width="1500">
<line x1="489" y1="613" x2="995" y2="621" style="stroke:rgb(0,0,0);stroke-width:1" />
<line x1="995" y1="621" x2="878" y2="563" style="stroke:rgb(0,0,0);stroke-width:1" />
<line x1="878" y1="563" x2="489" y2="613" style="stroke:rgb(0,0,0);stroke-width:1" />
<line x1="489" y1="613" x2="642" y2="561" style="stroke:rgb(0,0,0);stroke-width:1" />
<line x1="642" y1="561" x2="878" y2="563" style="stroke:rgb(0,0,0);stroke-width:1" />
<line x1="878" y1="563" x2="489" y2="613" style="stroke:rgb(0,0,0);stroke-width:1" />
<line x1="489" y1="613" x2="995" y2="621" style="stroke:rgb(0,0,0);stroke-width:1" />
<line x1="995" y1="621" x2="750" y2="165" style="stroke:rgb(0,0,0);stroke-width:1" />
<line x1="750" y1="165" x2="489" y2="613" style="stroke:rgb(0,0,0);stroke-width:1" />
<line x1="995" y1="621" x2="878" y2="563" style="stroke:rgb(0,0,0);stroke-width:1" />
<line x1="878" y1="563" x2="750" y2="165" style="stroke:rgb(0,0,0);stroke-width:1" />
<line x1="750" y1="165" x2="995" y2="621" style="stroke:rgb(0,0,0);stroke-width:1" />
<line x1="878" y1="563" x2="642" y2="561" style="stroke:rgb(0,0,0);stroke-width:1" />
<line x1="642" y1="561" x2="750" y2="165" style="stroke:rgb(0,0,0);stroke-width:1" />
<line x1="750" y1="165" x2="878" y2="563" style="stroke:rgb(0,0,0);stroke-width:1" />
<line x1="642" y1="561" x2="489" y2="613" style="stroke:rgb(0,0,0);stroke-width:1" />
<line x1="489" y1="613" x2="750" y2="165" style="stroke:rgb(0,0,0);stroke-width:1" />
<line x1="750" y1="165" x2="642" y2="561" style="stroke:rgb(0,0,0);stroke-width:1" />
</svg>
