<svg version="1.1" xmlns:xlink="http://www.w3.org/1999/xlink" xmlns="http://www.w3.org/2000/svg" height="844" width="1500">
<line x1="863" y1="561" x2="626" y2="562" style="stroke:rgb(0,0,0);stroke-width:1" />
<line x1="626" y1="562" x2="500" y2="619" style="stroke:rgb(0,0,0);stroke-width:1" />
<line x1="500" y1="619" x2="863" y2="561" style="stroke:rgb(0,0,0);stroke-width:1" />
<line x1="863" y1="561" x2="1007" y2="615" style="stroke:rgb(0,0,0);stroke-width:1" />
<line x1="1007" y1="615" x2="500" y2="619" style="stroke:rgb(0,0,0);stroke-width:1" />
<line x1="500" y1="619" x2="863" y2="561" style="stroke:rgb(0,0,0);stroke-width:1" />
<line x1="863" y1="561" x2="626" y2="562" style="stroke:rgb(0,0,0);stroke-width:1" />
<line x1="626" y1="562" x2="750" y2="165" style="stroke:rgb(0,0,0);stroke-width:1" />
<line x1="750" y1="165" x2="863" y2="561" style="stroke:rgb(0,0,0);stroke-width:1" />
<line x1="626" y1="562" x2="500" y2="619" style="stroke:rgb(0,0,0);stroke-width:1" />
<line x1="500" y1="619" x2="750" y2="165" style="stroke:rgb(0,0,0);stroke-width:1" />
<line x1="750" y1="165" x2="626" y2="562" style="stroke:rgb(0,0,0);stroke-width:1" />
<line x1="500" y1="619" x2="1007" y2="615" style="stroke:rgb(0,0,0);stroke-width:1" />
<line x1="1007" y1="615" x2="750" y2="165" style="stroke:rgb(0,0,0);stroke-width:1" />
<line x1="750" y1="165" x2="500" y2="619" style="stroke:rgb(0,0,0);stroke-width:1" />
<line x1="1007" y1="615" x2="863" y2="561" style="stroke:rgb(0,0,0);stroke-width:1" />
<line x1="863" y1="561" x2="750" y2="165" style="stroke:rgb(0,0,0);stroke-width:1" />
<line x1="750" y1="165" x2="1007" y2="615" style="stroke:rgb(0,0,0);stroke-width:1" />
</svg>
