<svg version="1.1" xmlns:xlink="http://www.w3.org/1999/xlink" xmlns="http://www.w3.org/2000/svg" height="844" width="1500">
<line x1="519" y1="627" x2="1014" y2="608" style="stroke:rgb(0,0,0);stroke-width:1" />
<line x1="1014" y1="608" x2="844" y2="560" style="stroke:rgb(0,0,0);stroke-width:1" />
<line x1="844" y1="560" x2="519" y2="627" style="stroke:rgb(0,0,0);stroke-width:1" />
<line x1="519" y1="627" x2="608" y2="564" style="stroke:rgb(0,0,0);stroke-width:1" />
<line x1="608" y1="564" x2="844" y2="560" style="stroke:rgb(0,0,0);stroke-width:1" />
<line x1="844" y1="560" x2="519" y2="627" style="stroke:rgb(0,0,0);stroke-width:1" />
<line x1="519" y1="627" x2="1014" y2="608" style="stroke:rgb(0,0,0);stroke-width:1" />
<line x1="1014" y1="608" x2="750" y2="165" style="stroke:rgb(0,0,0);stroke-width:1" />
<line x1="750" y1="165" x2="519" y2="627" style="stroke:rgb(0,0,0);stroke-width:1" />
<line x1="1014" y1="608" x2="844" y2="560" style="stroke:rgb(0,0,0);stroke-width:1" />
<line x1="844" y1="560" x2="750" y2="165" style="stroke:rgb(0,0,0);stroke-width:1" />
<line x1="750" y1="165" x2="1014" y2="608" style="stroke:rgb(0,0,0);stroke-width:1" />
<line x1="844" y1="560" x2="608" y2="564" style="stroke:rgb(0,0,0);stroke-width:1" />
<line x1="608" y1="564" x2="750" y2="165" style="stroke:rgb(0,0,0);stroke-width:1" />
<line x1="750" y1="165" x2="844" y2="560" style="stroke:rgb(0,0,0);stroke-width:1" />
<line x1="608" y1="564" x2="519" y2="627" style="stroke:rgb(0,0,0);stroke-width:1" />
<line x1="519" y1="627" x2="750" y2="165" style="stroke:rgb(0,0,0);stroke-width:1" />
<line x1="750" y1="165" x2="608" y2="564" style="stroke:rgb(0,0,0);stroke-width:1" />
</svg>
