<svg version="1.1" xmlns:xlink="http://www.w3.org/1999/xlink" xmlns="http://www.w3.org/2000/svg" height="844" width="1500">
<line x1="907" y1="566" x2="671" y2="559" style="stroke:rgb(0,0,0);stroke-width:1" />
<line x1="671" y1="559" x2="483" y2="602" style="stroke:rgb(0,0,0);stroke-width:1" />
<line x1="483" y1="602" x2="907" y2="566" style="stroke:rgb(0,0,0);stroke-width:1" />
<line x1="907" y1="566" x2="956" y2="633" style="stroke:rgb(0,0,0);stroke-width:1" />
<line x1="956" y1="633" x2="483" y2="602" style="stroke:rgb(0,0,0);stroke-width:1" />
<line x1="483" y1="602" x2="907" y2="566" style="stroke:rgb(0,0,0);stroke-width:1" />
<line x1="907" y1="566" x2="671" y2="559" style="stroke:rgb(0,0,0);stroke-width:1" />
<line x1="671" y1="559" x2="750" y2="165" style="stroke:rgb(0,0,0);stroke-width:1" />
<line x1="750" y1="165" x2="907" y2="566" style="stroke:rgb(0,0,0);stroke-width:1" />
<line x1="671" y1="559" x2="483" y2="602" style="stroke:rgb(0,0,0);stroke-width:1" />
<line x1="483" y1="602" x2="750" y2="165" style="stroke:rgb(0,0,0);stroke-width:1" />
<line x1="750" y1="165" x2="671" y2="559" style="stroke:rgb(0,0,0);stroke-width:1" />
<line x1="483" y1="602" x2="956" y2="633" style="stroke:rgb(0,0,0);stroke-width:1" />
<line x1="956" y1="633" x2="750" y2="165" style="stroke:rgb(0,0,0);stroke-width:1" />
<line x1="750" y1="165" x2="483" y2="602" style="stroke:rgb(0,0,0);stroke-width:1" />
<line x1="956" y1="633" x2="907" y2="566" style="stroke:rgb(0,0,0);stroke-width:1" />
<line x1="907" y1="566" x2="750" y2="165" style="stroke:rgb(0,0,0);stroke-width:1" />
<line x1="750" y1="165" x2="956" y2="633" style="stroke:rgb(0,0,0);stroke-width:1" />
</svg>
