<svg version="1.1" xmlns:xlink="http://www.w3.org/1999/xlink" xmlns="http://www.w3.org/2000/svg" height="844" width="1500">
<line x1="771" y1="557" x2="539" y2="575" style="stroke:rgb(0,0,0);stroke-width:1" />
<line x1="539" y1="575" x2="685" y2="648" style="stroke:rgb(0,0,0);stroke-width:1" />
<line x1="685" y1="648" x2="771" y2="557" style="stroke:rgb(0,0,0);stroke-width:1" />
<line x1="771" y1="557" x2="993" y2="584" style="stroke:rgb(0,0,0);stroke-width:1" />
<line x1="993" y1="584" x2="685" y2="648" style="stroke:rgb(0,0,0);stroke-width:1" />
<line x1="685" y1="648" x2="771" y2="557" style="stroke:rgb(0,0,0);stroke-width:1" />
<line x1="771" y1="557" x2="539" y2="575" style="stroke:rgb(0,0,0);stroke-width:1" />
<line x1="539" y1="575" x2="750" y2="165" style="stroke:rgb(0,0,0);stroke-width:1" />
<line x1="750" y1="165" x2="771" y2="557" style="stroke:rgb(0,0,0);stroke-width:1" />
<line x1="539" y1="575" x2="685" y2="648" style="stroke:rgb(0,0,0);stroke-width:1" />
<line x1="685" y1="648" x2="750" y2="165" style="stroke:rgb(0,0,0);stroke-width:1" />
<line x1="750" y1="165" x2="539" y2="575" style="stroke:rgb(0,0,0);stroke-width:1" />
<line x1="685" y1="648" x2="993" y2="584" style="stroke:rgb(0,0,0);stroke-width:1" />
<line x1="993" y1="584" x2="750" y2="165" style="stroke:rgb(0,0,0);stroke-width:1" />
<line x1="750" y1="165" x2="685" y2="648" style="stroke:rgb(0,0,0);stroke-width:1" />
<line x1="993" y1="584" x2="771" y2="557" style="stroke:rgb(0,0,0);stroke-width:1" />
<line x1="771" y1="557" x2="750" y2="165" style="stroke:rgb(0,0,0);stroke-width:1" />
<line x1="750" y1="165" x2="993" y2="584" style="stroke:rgb(0,0,0);stroke-width:1" />
</svg>
