<svg version="1.1" xmlns:xlink="http://www.w3.org/1999/xlink" xmlns="http://www.w3.org/2000/svg" height="844" width="1500">
<line x1="553" y1="634" x2="1015" y2="600" style="stroke:rgb(0,0,0);stroke-width:1" />
<line x1="1015" y1="600" x2="823" y2="559" style="stroke:rgb(0,0,0);stroke-width:1" />
<line x1="823" y1="559" x2="553" y2="634" style="stroke:rgb(0,0,0);stroke-width:1" />
<line x1="553" y1="634" x2="587" y2="567" style="stroke:rgb(0,0,0);stroke-width:1" />
<line x1="587" y1="567" x2="823" y2="559" style="stroke:rgb(0,0,0);stroke-width:1" />
<line x1="823" y1="559" x2="553" y2="634" style="stroke:rgb(0,0,0);stroke-width:1" />
<line x1="553" y1="634" x2="1015" y2="600" style="stroke:rgb(0,0,0);stroke-width:1" />
<line x1="1015" y1="600" x2="750" y2="165" style="stroke:rgb(0,0,0);stroke-width:1" />
<line x1="750" y1="165" x2="553" y2="634" style="stroke:rgb(0,0,0);stroke-width:1" />
<line x1="1015" y1="600" x2="823" y2="559" style="stroke:rgb(0,0,0);stroke-width:1" />
<line x1="823" y1="559" x2="750" y2="165" style="stroke:rgb(0,0,0);stroke-width:1" />
<line x1="750" y1="165" x2="1015" y2="600" style="stroke:rgb(0,0,0);stroke-width:1" />
<line x1="823" y1="559" x2="587" y2="567" style="stroke:rgb(0,0,0);stroke-width:1" />
<line x1="587" y1="567" x2="750" y2="165" style="stroke:rgb(0,0,0);stroke-width:1" />
<line x1="750" y1="165" x2="823" y2="559" style="stroke:rgb(0,0,0);stroke-width:1" />
<line x1="587" y1="567" x2="553" y2="634" style="stroke:rgb(0,0,0);stroke-width:1" />
<line x1="553" y1="634" x2="750" y2="165" style="stroke:rgb(0,0,0);stroke-width:1" />
<line x1="750" y1="165" x2="587" y2="567" style="stroke:rgb(0,0,0);stroke-width:1" />
</svg>
