<svg version="1.1" xmlns:xlink="http://www.w3.org/1999/xlink" xmlns="http://www.w3.org/2000/svg" height="844" width="1500">
<line x1="733" y1="649" x2="982" y2="581" style="stroke:rgb(0,0,0);stroke-width:1" />
<line x1="982" y1="581" x2="755" y2="557" style="stroke:rgb(0,0,0);stroke-width:1" />
<line x1="755" y1="557" x2="733" y2="649" style="stroke:rgb(0,0,0);stroke-width:1" />
<line x1="733" y1="649" x2="525" y2="578" style="stroke:rgb(0,0,0);stroke-width:1" />
<line x1="525" y1="578" x2="755" y2="557" style="stroke:rgb(0,0,0);stroke-width:1" />
<line x1="755" y1="557" x2="733" y2="649" style="stroke:rgb(0,0,0);stroke-width:1" />
<line x1="733" y1="649" x2="982" y2="581" style="stroke:rgb(0,0,0);stroke-width:1" />
<line x1="982" y1="581" x2="750" y2="165" style="stroke:rgb(0,0,0);stroke-width:1" />
<line x1="750" y1="165" x2="733" y2="649" style="stroke:rgb(0,0,0);stroke-width:1" />
<line x1="982" y1="581" x2="755" y2="557" style="stroke:rgb(0,0,0);stroke-width:1" />
<line x1="755" y1="557" x2="750" y2="165" style="stroke:rgb(0,0,0);stroke-width:1" />
<line x1="750" y1="165" x2="982" y2="581" style="stroke:rgb(0,0,0);stroke-width:1" />
<line x1="755" y1="557" x2="525" y2="578" style="stroke:rgb(0,0,0);stroke-width:1" />
<line x1="525" y1="578" x2="750" y2="165" style="stroke:rgb(0,0,0);stroke-width:1" />
<line x1="750" y1="165" x2="755" y2="557" style="stroke:rgb(0,0,0);stroke-width:1" />
<line x1="525" y1="578" x2="733" y2="649" style="stroke:rgb(0,0,0);stroke-width:1" />
<line x1="733" y1="649" x2="750" y2="165" style="stroke:rgb(0,0,0);stroke-width:1" />
<line x1="750" y1="165" x2="525" y2="578" style="stroke:rgb(0,0,0);stroke-width:1" />
</svg>
