<svg version="1.1" xmlns:xlink="http://www.w3.org/1999/xlink" xmlns="http://www.w3.org/2000/svg" height="844" width="1500">
<line x1="797" y1="558" x2="562" y2="570" style="stroke:rgb(0,0,0);stroke-width:1" />
<line x1="562" y1="570" x2="611" y2="643" style="stroke:rgb(0,0,0);stroke-width:1" />
<line x1="611" y1="643" x2="797" y2="558" style="stroke:rgb(0,0,0);stroke-width:1" />
<line x1="797" y1="558" x2="1008" y2="592" style="stroke:rgb(0,0,0);stroke-width:1" />
<line x1="1008" y1="592" x2="611" y2="643" style="stroke:rgb(0,0,0);stroke-width:1" />
<line x1="611" y1="643" x2="797" y2="558" style="stroke:rgb(0,0,0);stroke-width:1" />
<line x1="797" y1="558" x2="562" y2="570" style="stroke:rgb(0,0,0);stroke-width:1" />
<line x1="562" y1="570" x2="750" y2="165" style="stroke:rgb(0,0,0);stroke-width:1" />
<line x1="750" y1="165" x2="797" y2="558" style="stroke:rgb(0,0,0);stroke-width:1" />
<line x1="562" y1="570" x2="611" y2="643" style="stroke:rgb(0,0,0);stroke-width:1" />
<line x1="611" y1="643" x2="750" y2="165" style="stroke:rgb(0,0,0);stroke-width:1" />
<line x1="750" y1="165" x2="562" y2="570" style="stroke:rgb(0,0,0);stroke-width:1" />
<line x1="611" y1="643" x2="1008" y2="592" style="stroke:rgb(0,0,0);stroke-width:1" />
<line x1="1008" y1="592" x2="750" y2="165" style="stroke:rgb(0,0,0);stroke-width:1" />
<line x1="750" y1="165" x2="611" y2="643" style="stroke:rgb(0,0,0);stroke-width:1" />
<line x1="1008" y1="592" x2="797" y2="558" style="stroke:rgb(0,0,0);stroke-width:1" />
<line x1="797" y1="558" x2="750" y2="165" style="stroke:rgb(0,0,0);stroke-width:1" />
<line x1="750" y1="165" x2="1008" y2="592" style="stroke:rgb(0,0,0);stroke-width:1" />
</svg>
