<svg version="1.1" xmlns:xlink="http://www.w3.org/1999/xlink" xmlns="http://www.w3.org/2000/svg" height="844" width="1500">
<line x1="1001" y1="618" x2="870" y2="562" style="stroke:rgb(0,0,0);stroke-width:1" />
<line x1="870" y1="562" x2="634" y2="562" style="stroke:rgb(0,0,0);stroke-width:1" />
<line x1="634" y1="562" x2="1001" y2="618" style="stroke:rgb(0,0,0);stroke-width:1" />
<line x1="1001" y1="618" x2="494" y2="616" style="stroke:rgb(0,0,0);stroke-width:1" />
<line x1="494" y1="616" x2="634" y2="562" style="stroke:rgb(0,0,0);stroke-width:1" />
<line x1="634" y1="562" x2="1001" y2="618" style="stroke:rgb(0,0,0);stroke-width:1" />
<line x1="1001" y1="618" x2="870" y2="562" style="stroke:rgb(0,0,0);stroke-width:1" />
<line x1="870" y1="562" x2="750" y2="165" style="stroke:rgb(0,0,0);stroke-width:1" />
<line x1="750" y1="165" x2="1001" y2="618" style="stroke:rgb(0,0,0);stroke-width:1" />
<line x1="870" y1="562" x2="634" y2="562" style="stroke:rgb(0,0,0);stroke-width:1" />
<line x1="634" y1="562" x2="750" y2="165" style="stroke:rgb(0,0,0);stroke-width:1" />
<line x1="750" y1="165" x2="870" y2="562" style="stroke:rgb(0,0,0);stroke-width:1" />
<line x1="634" y1="562" x2="494" y2="616" style="stroke:rgb(0,0,0);stroke-width:1" />
<line x1="494" y1="616" x2="750" y2="165" style="stroke:rgb(0,0,0);stroke-width:1" />
<line x1="750" y1="165" x2="634" y2="562" style="stroke:rgb(0,0,0);stroke-width:1" />
<line x1="494" y1="616" x2="1001" y2="618" style="stroke:rgb(0,0,0);stroke-width:1" />
<line x1="1001" y1="618" x2="750" y2="165" style="stroke:rgb(0,0,0);stroke-width:1" />
<line x1="750" y1="165" x2="494" y2="616" style="stroke:rgb(0,0,0);stroke-width:1" />
</svg>
