<svg version="1.1" xmlns:xlink="http://www.w3.org/1999/xlink" xmlns="http://www.w3.org/2000/svg" height="844" width="1500">
<line x1="996" y1="586" x2="776" y2="557" style="stroke:rgb(0,0,0);stroke-width:1" />
<line x1="776" y1="557" x2="543" y2="574" style="stroke:rgb(0,0,0);stroke-width:1" />
<line x1="543" y1="574" x2="996" y2="586" style="stroke:rgb(0,0,0);stroke-width:1" />
<line x1="996" y1="586" x2="669" y2="647" style="stroke:rgb(0,0,0);stroke-width:1" />
<line x1="669" y1="647" x2="543" y2="574" style="stroke:rgb(0,0,0);stroke-width:1" />
<line x1="543" y1="574" x2="996" y2="586" style="stroke:rgb(0,0,0);stroke-width:1" />
<line x1="996" y1="586" x2="776" y2="557" style="stroke:rgb(0,0,0);stroke-width:1" />
<line x1="776" y1="557" x2="750" y2="165" style="stroke:rgb(0,0,0);stroke-width:1" />
<line x1="750" y1="165" x2="996" y2="586" style="stroke:rgb(0,0,0);stroke-width:1" />
<line x1="776" y1="557" x2="543" y2="574" style="stroke:rgb(0,0,0);stroke-width:1" />
<line x1="543" y1="574" x2="750" y2="165" style="stroke:rgb(0,0,0);stroke-width:1" />
<line x1="750" y1="165" x2="776" y2="557" style="stroke:rgb(0,0,0);stroke-width:1" />
<line x1="543" y1="574" x2="669" y2="647" style="stroke:rgb(0,0,0);stroke-width:1" />
<line x1="669" y1="647" x2="750" y2="165" style="stroke:rgb(0,0,0);stroke-width:1" />
<line x1="750" y1="165" x2="543" y2="574" style="stroke:rgb(0,0,0);stroke-width:1" />
<line x1="669" y1="647" x2="996" y2="586" style="stroke:rgb(0,0,0);stroke-width:1" />
<line x1="996" y1="586" x2="750" y2="165" style="stroke:rgb(0,0,0);stroke-width:1" />
<line x1="750" y1="165" x2="669" y2="647" style="stroke:rgb(0,0,0);stroke-width:1" />
</svg>
