<svg version="1.1" xmlns:xlink="http://www.w3.org/1999/xlink" xmlns="http://www.w3.org/2000/svg" height="844" width="1500">
<line x1="942" y1="571" x2="707" y2="558" style="stroke:rgb(0,0,0);stroke-width:1" />
<line x1="707" y1="558" x2="494" y2="590" style="stroke:rgb(0,0,0);stroke-width:1" />
<line x1="494" y1="590" x2="942" y2="571" style="stroke:rgb(0,0,0);stroke-width:1" />
<line x1="942" y1="571" x2="874" y2="644" style="stroke:rgb(0,0,0);stroke-width:1" />
<line x1="874" y1="644" x2="494" y2="590" style="stroke:rgb(0,0,0);stroke-width:1" />
<line x1="494" y1="590" x2="942" y2="571" style="stroke:rgb(0,0,0);stroke-width:1" />
<line x1="942" y1="571" x2="707" y2="558" style="stroke:rgb(0,0,0);stroke-width:1" />
<line x1="707" y1="558" x2="750" y2="165" style="stroke:rgb(0,0,0);stroke-width:1" />
<line x1="750" y1="165" x2="942" y2="571" style="stroke:rgb(0,0,0);stroke-width:1" />
<line x1="707" y1="558" x2="494" y2="590" style="stroke:rgb(0,0,0);stroke-width:1" />
<line x1="494" y1="590" x2="750" y2="165" style="stroke:rgb(0,0,0);stroke-width:1" />
<line x1="750" y1="165" x2="707" y2="558" style="stroke:rgb(0,0,0);stroke-width:1" />
<line x1="494" y1="590" x2="874" y2="644" style="stroke:rgb(0,0,0);stroke-width:1" />
<line x1="874" y1="644" x2="750" y2="165" style="stroke:rgb(0,0,0);stroke-width:1" />
<line x1="750" y1="165" x2="494" y2="590" style="stroke:rgb(0,0,0);stroke-width:1" />
<line x1="874" y1="644" x2="942" y2="571" style="stroke:rgb(0,0,0);stroke-width:1" />
<line x1="942" y1="571" x2="750" y2="165" style="stroke:rgb(0,0,0);stroke-width:1" />
<line x1="750" y1="165" x2="874" y2="644" style="stroke:rgb(0,0,0);stroke-width:1" />
</svg>
