<svg version="1.1" xmlns:xlink="http://www.w3.org/1999/xlink" xmlns="http://www.w3.org/2000/svg" height="844" width="1500">
<line x1="548" y1="634" x2="1016" y2="601" style="stroke:rgb(0,0,0);stroke-width:1" />
<line x1="1016" y1="601" x2="826" y2="559" style="stroke:rgb(0,0,0);stroke-width:1" />
<line x1="826" y1="559" x2="548" y2="634" style="stroke:rgb(0,0,0);stroke-width:1" />
<line x1="548" y1="634" x2="590" y2="566" style="stroke:rgb(0,0,0);stroke-width:1" />
<line x1="590" y1="566" x2="826" y2="559" style="stroke:rgb(0,0,0);stroke-width:1" />
<line x1="826" y1="559" x2="548" y2="634" style="stroke:rgb(0,0,0);stroke-width:1" />
<line x1="548" y1="634" x2="1016" y2="601" style="stroke:rgb(0,0,0);stroke-width:1" />
<line x1="1016" y1="601" x2="750" y2="165" style="stroke:rgb(0,0,0);stroke-width:1" />
<line x1="750" y1="165" x2="548" y2="634" style="stroke:rgb(0,0,0);stroke-width:1" />
<line x1="1016" y1="601" x2="826" y2="559" style="stroke:rgb(0,0,0);stroke-width:1" />
<line x1="826" y1="559" x2="750" y2="165" style="stroke:rgb(0,0,0);stroke-width:1" />
<line x1="750" y1="165" x2="1016" y2="601" style="stroke:rgb(0,0,0);stroke-width:1" />
<line x1="826" y1="559" x2="590" y2="566" style="stroke:rgb(0,0,0);stroke-width:1" />
<line x1="590" y1="566" x2="750" y2="165" style="stroke:rgb(0,0,0);stroke-width:1" />
<line x1="750" y1="165" x2="826" y2="559" style="stroke:rgb(0,0,0);stroke-width:1" />
<line x1="590" y1="566" x2="548" y2="634" style="stroke:rgb(0,0,0);stroke-width:1" />
<line x1="548" y1="634" x2="750" y2="165" style="stroke:rgb(0,0,0);stroke-width:1" />
<line x1="750" y1="165" x2="590" y2="566" style="stroke:rgb(0,0,0);stroke-width:1" />
</svg>
