<svg version="1.1" xmlns:xlink="http://www.w3.org/1999/xlink" xmlns="http://www.w3.org/2000/svg" height="844" width="1500">
<line x1="507" y1="622" x2="1011" y2="612" style="stroke:rgb(0,0,0);stroke-width:1" />
<line x1="1011" y1="612" x2="855" y2="561" style="stroke:rgb(0,0,0);stroke-width:1" />
<line x1="855" y1="561" x2="507" y2="622" style="stroke:rgb(0,0,0);stroke-width:1" />
<line x1="507" y1="622" x2="618" y2="563" style="stroke:rgb(0,0,0);stroke-width:1" />
<line x1="618" y1="563" x2="855" y2="561" style="stroke:rgb(0,0,0);stroke-width:1" />
<line x1="855" y1="561" x2="507" y2="622" style="stroke:rgb(0,0,0);stroke-width:1" />
<line x1="507" y1="622" x2="1011" y2="612" style="stroke:rgb(0,0,0);stroke-width:1" />
<line x1="1011" y1="612" x2="750" y2="165" style="stroke:rgb(0,0,0);stroke-width:1" />
<line x1="750" y1="165" x2="507" y2="622" style="stroke:rgb(0,0,0);stroke-width:1" />
<line x1="1011" y1="612" x2="855" y2="561" style="stroke:rgb(0,0,0);stroke-width:1" />
<line x1="855" y1="561" x2="750" y2="165" style="stroke:rgb(0,0,0);stroke-width:1" />
<line x1="750" y1="165" x2="1011" y2="612" style="stroke:rgb(0,0,0);stroke-width:1" />
<line x1="855" y1="561" x2="618" y2="563" style="stroke:rgb(0,0,0);stroke-width:1" />
<line x1="618" y1="563" x2="750" y2="165" style="stroke:rgb(0,0,0);stroke-width:1" />
<line x1="750" y1="165" x2="855" y2="561" style="stroke:rgb(0,0,0);stroke-width:1" />
<line x1="618" y1="563" x2="507" y2="622" style="stroke:rgb(0,0,0);stroke-width:1" />
<line x1="507" y1="622" x2="750" y2="165" style="stroke:rgb(0,0,0);stroke-width:1" />
<line x1="750" y1="165" x2="618" y2="563" style="stroke:rgb(0,0,0);stroke-width:1" />
</svg>
