<svg version="1.1" xmlns:xlink="http://www.w3.org/1999/xlink" xmlns="http://www.w3.org/2000/svg" height="844" width="1500">
<line x1="613" y1="563" x2="513" y2="625" style="stroke:rgb(0,0,0);stroke-width:1" />
<line x1="513" y1="625" x2="1013" y2="610" style="stroke:rgb(0,0,0);stroke-width:1" />
<line x1="1013" y1="610" x2="613" y2="563" style="stroke:rgb(0,0,0);stroke-width:1" />
<line x1="613" y1="563" x2="849" y2="560" style="stroke:rgb(0,0,0);stroke-width:1" />
<line x1="849" y1="560" x2="1013" y2="610" style="stroke:rgb(0,0,0);stroke-width:1" />
<line x1="1013" y1="610" x2="613" y2="563" style="stroke:rgb(0,0,0);stroke-width:1" />
<line x1="613" y1="563" x2="513" y2="625" style="stroke:rgb(0,0,0);stroke-width:1" />
<line x1="513" y1="625" x2="750" y2="165" style="stroke:rgb(0,0,0);stroke-width:1" />
<line x1="750" y1="165" x2="613" y2="563" style="stroke:rgb(0,0,0);stroke-width:1" />
<line x1="513" y1="625" x2="1013" y2="610" style="stroke:rgb(0,0,0);stroke-width:1" />
<line x1="1013" y1="610" x2="750" y2="165" style="stroke:rgb(0,0,0);stroke-width:1" />
<line x1="750" y1="165" x2="513" y2="625" style="stroke:rgb(0,0,0);stroke-width:1" />
<line x1="1013" y1="610" x2="849" y2="560" style="stroke:rgb(0,0,0);stroke-width:1" />
<line x1="849" y1="560" x2="750" y2="165" style="stroke:rgb(0,0,0);stroke-width:1" />
<line x1="750" y1="165" x2="1013" y2="610" style="stroke:rgb(0,0,0);stroke-width:1" />
<line x1="849" y1="560" x2="613" y2="563" style="stroke:rgb(0,0,0);stroke-width:1" />
<line x1="613" y1="563" x2="750" y2="165" style="stroke:rgb(0,0,0);stroke-width:1" />
<line x1="750" y1="165" x2="849" y2="560" style="stroke:rgb(0,0,0);stroke-width:1" />
</svg>
