<svg version="1.1" xmlns:xlink="http://www.w3.org/1999/xlink" xmlns="http://www.w3.org/2000/svg" height="844" width="1500">
<line x1="713" y1="557" x2="497" y2="589" style="stroke:rgb(0,0,0);stroke-width:1" />
<line x1="497" y1="589" x2="860" y2="645" style="stroke:rgb(0,0,0);stroke-width:1" />
<line x1="860" y1="645" x2="713" y2="557" style="stroke:rgb(0,0,0);stroke-width:1" />
<line x1="713" y1="557" x2="946" y2="572" style="stroke:rgb(0,0,0);stroke-width:1" />
<line x1="946" y1="572" x2="860" y2="645" style="stroke:rgb(0,0,0);stroke-width:1" />
<line x1="860" y1="645" x2="713" y2="557" style="stroke:rgb(0,0,0);stroke-width:1" />
<line x1="713" y1="557" x2="497" y2="589" style="stroke:rgb(0,0,0);stroke-width:1" />
<line x1="497" y1="589" x2="750" y2="165" style="stroke:rgb(0,0,0);stroke-width:1" />
<line x1="750" y1="165" x2="713" y2="557" style="stroke:rgb(0,0,0);stroke-width:1" />
<line x1="497" y1="589" x2="860" y2="645" style="stroke:rgb(0,0,0);stroke-width:1" />
<line x1="860" y1="645" x2="750" y2="165" style="stroke:rgb(0,0,0);stroke-width:1" />
<line x1="750" y1="165" x2="497" y2="589" style="stroke:rgb(0,0,0);stroke-width:1" />
<line x1="860" y1="645" x2="946" y2="572" style="stroke:rgb(0,0,0);stroke-width:1" />
<line x1="946" y1="572" x2="750" y2="165" style="stroke:rgb(0,0,0);stroke-width:1" />
<line x1="750" y1="165" x2="860" y2="645" style="stroke:rgb(0,0,0);stroke-width:1" />
<line x1="946" y1="572" x2="713" y2="557" style="stroke:rgb(0,0,0);stroke-width:1" />
<line x1="713" y1="557" x2="750" y2="165" style="stroke:rgb(0,0,0);stroke-width:1" />
<line x1="750" y1="165" x2="946" y2="572" style="stroke:rgb(0,0,0);stroke-width:1" />
</svg>
