<svg version="1.1" xmlns:xlink="http://www.w3.org/1999/xlink" xmlns="http://www.w3.org/2000/svg" height="844" width="1500">
<line x1="886" y1="563" x2="650" y2="560" style="stroke:rgb(0,0,0);stroke-width:1" />
<line x1="650" y1="560" x2="486" y2="610" style="stroke:rgb(0,0,0);stroke-width:1" />
<line x1="486" y1="610" x2="886" y2="563" style="stroke:rgb(0,0,0);stroke-width:1" />
<line x1="886" y1="563" x2="986" y2="625" style="stroke:rgb(0,0,0);stroke-width:1" />
<line x1="986" y1="625" x2="486" y2="610" style="stroke:rgb(0,0,0);stroke-width:1" />
<line x1="486" y1="610" x2="886" y2="563" style="stroke:rgb(0,0,0);stroke-width:1" />
<line x1="886" y1="563" x2="650" y2="560" style="stroke:rgb(0,0,0);stroke-width:1" />
<line x1="650" y1="560" x2="750" y2="165" style="stroke:rgb(0,0,0);stroke-width:1" />
<line x1="750" y1="165" x2="886" y2="563" style="stroke:rgb(0,0,0);stroke-width:1" />
<line x1="650" y1="560" x2="486" y2="610" style="stroke:rgb(0,0,0);stroke-width:1" />
<line x1="486" y1="610" x2="750" y2="165" style="stroke:rgb(0,0,0);stroke-width:1" />
<line x1="750" y1="165" x2="650" y2="560" style="stroke:rgb(0,0,0);stroke-width:1" />
<line x1="486" y1="610" x2="986" y2="625" style="stroke:rgb(0,0,0);stroke-width:1" />
<line x1="986" y1="625" x2="750" y2="165" style="stroke:rgb(0,0,0);stroke-width:1" />
<line x1="750" y1="165" x2="486" y2="610" style="stroke:rgb(0,0,0);stroke-width:1" />
<line x1="986" y1="625" x2="886" y2="563" style="stroke:rgb(0,0,0);stroke-width:1" />
<line x1="886" y1="563" x2="750" y2="165" style="stroke:rgb(0,0,0);stroke-width:1" />
<line x1="750" y1="165" x2="986" y2="625" style="stroke:rgb(0,0,0);stroke-width:1" />
</svg>
