<svg version="1.1" xmlns:xlink="http://www.w3.org/1999/xlink" xmlns="http://www.w3.org/2000/svg" height="844" width="1500">
<line x1="655" y1="560" x2="485" y2="608" style="stroke:rgb(0,0,0);stroke-width:1" />
<line x1="485" y1="608" x2="980" y2="627" style="stroke:rgb(0,0,0);stroke-width:1" />
<line x1="980" y1="627" x2="655" y2="560" style="stroke:rgb(0,0,0);stroke-width:1" />
<line x1="655" y1="560" x2="891" y2="564" style="stroke:rgb(0,0,0);stroke-width:1" />
<line x1="891" y1="564" x2="980" y2="627" style="stroke:rgb(0,0,0);stroke-width:1" />
<line x1="980" y1="627" x2="655" y2="560" style="stroke:rgb(0,0,0);stroke-width:1" />
<line x1="655" y1="560" x2="485" y2="608" style="stroke:rgb(0,0,0);stroke-width:1" />
<line x1="485" y1="608" x2="750" y2="165" style="stroke:rgb(0,0,0);stroke-width:1" />
<line x1="750" y1="165" x2="655" y2="560" style="stroke:rgb(0,0,0);stroke-width:1" />
<line x1="485" y1="608" x2="980" y2="627" style="stroke:rgb(0,0,0);stroke-width:1" />
<line x1="980" y1="627" x2="750" y2="165" style="stroke:rgb(0,0,0);stroke-width:1" />
<line x1="750" y1="165" x2="485" y2="608" style="stroke:rgb(0,0,0);stroke-width:1" />
<line x1="980" y1="627" x2="891" y2="564" style="stroke:rgb(0,0,0);stroke-width:1" />
<line x1="891" y1="564" x2="750" y2="165" style="stroke:rgb(0,0,0);stroke-width:1" />
<line x1="750" y1="165" x2="980" y2="627" style="stroke:rgb(0,0,0);stroke-width:1" />
<line x1="891" y1="564" x2="655" y2="560" style="stroke:rgb(0,0,0);stroke-width:1" />
<line x1="655" y1="560" x2="750" y2="165" style="stroke:rgb(0,0,0);stroke-width:1" />
<line x1="750" y1="165" x2="891" y2="564" style="stroke:rgb(0,0,0);stroke-width:1" />
</svg>
