<svg version="1.1" xmlns:xlink="http://www.w3.org/1999/xlink" xmlns="http://www.w3.org/2000/svg" height="844" width="1500">
<line x1="673" y1="559" x2="483" y2="601" style="stroke:rgb(0,0,0);stroke-width:1" />
<line x1="483" y1="601" x2="951" y2="634" style="stroke:rgb(0,0,0);stroke-width:1" />
<line x1="951" y1="634" x2="673" y2="559" style="stroke:rgb(0,0,0);stroke-width:1" />
<line x1="673" y1="559" x2="909" y2="566" style="stroke:rgb(0,0,0);stroke-width:1" />
<line x1="909" y1="566" x2="951" y2="634" style="stroke:rgb(0,0,0);stroke-width:1" />
<line x1="951" y1="634" x2="673" y2="559" style="stroke:rgb(0,0,0);stroke-width:1" />
<line x1="673" y1="559" x2="483" y2="601" style="stroke:rgb(0,0,0);stroke-width:1" />
<line x1="483" y1="601" x2="750" y2="165" style="stroke:rgb(0,0,0);stroke-width:1" />
<line x1="750" y1="165" x2="673" y2="559" style="stroke:rgb(0,0,0);stroke-width:1" />
<line x1="483" y1="601" x2="951" y2="634" style="stroke:rgb(0,0,0);stroke-width:1" />
<line x1="951" y1="634" x2="750" y2="165" style="stroke:rgb(0,0,0);stroke-width:1" />
<line x1="750" y1="165" x2="483" y2="601" style="stroke:rgb(0,0,0);stroke-width:1" />
<line x1="951" y1="634" x2="909" y2="566" style="stroke:rgb(0,0,0);stroke-width:1" />
<line x1="909" y1="566" x2="750" y2="165" style="stroke:rgb(0,0,0);stroke-width:1" />
<line x1="750" y1="165" x2="951" y2="634" style="stroke:rgb(0,0,0);stroke-width:1" />
<line x1="909" y1="566" x2="673" y2="559" style="stroke:rgb(0,0,0);stroke-width:1" />
<line x1="673" y1="559" x2="750" y2="165" style="stroke:rgb(0,0,0);stroke-width:1" />
<line x1="750" y1="165" x2="909" y2="566" style="stroke:rgb(0,0,0);stroke-width:1" />
</svg>
