<svg version="1.1" xmlns:xlink="http://www.w3.org/1999/xlink" xmlns="http://www.w3.org/2000/svg" height="844" width="1500">
<line x1="548" y1="573" x2="654" y2="646" style="stroke:rgb(0,0,0);stroke-width:1" />
<line x1="654" y1="646" x2="999" y2="587" style="stroke:rgb(0,0,0);stroke-width:1" />
<line x1="999" y1="587" x2="548" y2="573" style="stroke:rgb(0,0,0);stroke-width:1" />
<line x1="548" y1="573" x2="781" y2="557" style="stroke:rgb(0,0,0);stroke-width:1" />
<line x1="781" y1="557" x2="999" y2="587" style="stroke:rgb(0,0,0);stroke-width:1" />
<line x1="999" y1="587" x2="548" y2="573" style="stroke:rgb(0,0,0);stroke-width:1" />
<line x1="548" y1="573" x2="654" y2="646" style="stroke:rgb(0,0,0);stroke-width:1" />
<line x1="654" y1="646" x2="750" y2="165" style="stroke:rgb(0,0,0);stroke-width:1" />
<line x1="750" y1="165" x2="548" y2="573" style="stroke:rgb(0,0,0);stroke-width:1" />
<line x1="654" y1="646" x2="999" y2="587" style="stroke:rgb(0,0,0);stroke-width:1" />
<line x1="999" y1="587" x2="750" y2="165" style="stroke:rgb(0,0,0);stroke-width:1" />
<line x1="750" y1="165" x2="654" y2="646" style="stroke:rgb(0,0,0);stroke-width:1" />
<line x1="999" y1="587" x2="781" y2="557" style="stroke:rgb(0,0,0);stroke-width:1" />
<line x1="781" y1="557" x2="750" y2="165" style="stroke:rgb(0,0,0);stroke-width:1" />
<line x1="750" y1="165" x2="999" y2="587" style="stroke:rgb(0,0,0);stroke-width:1" />
<line x1="781" y1="557" x2="548" y2="573" style="stroke:rgb(0,0,0);stroke-width:1" />
<line x1="548" y1="573" x2="750" y2="165" style="stroke:rgb(0,0,0);stroke-width:1" />
<line x1="750" y1="165" x2="781" y2="557" style="stroke:rgb(0,0,0);stroke-width:1" />
</svg>
