<svg version="1.1" xmlns:xlink="http://www.w3.org/1999/xlink" xmlns="http://www.w3.org/2000/svg" height="844" width="1500">
<line x1="580" y1="568" x2="569" y2="637" style="stroke:rgb(0,0,0);stroke-width:1" />
<line x1="569" y1="637" x2="1014" y2="598" style="stroke:rgb(0,0,0);stroke-width:1" />
<line x1="1014" y1="598" x2="580" y2="568" style="stroke:rgb(0,0,0);stroke-width:1" />
<line x1="580" y1="568" x2="815" y2="558" style="stroke:rgb(0,0,0);stroke-width:1" />
<line x1="815" y1="558" x2="1014" y2="598" style="stroke:rgb(0,0,0);stroke-width:1" />
<line x1="1014" y1="598" x2="580" y2="568" style="stroke:rgb(0,0,0);stroke-width:1" />
<line x1="580" y1="568" x2="569" y2="637" style="stroke:rgb(0,0,0);stroke-width:1" />
<line x1="569" y1="637" x2="750" y2="165" style="stroke:rgb(0,0,0);stroke-width:1" />
<line x1="750" y1="165" x2="580" y2="568" style="stroke:rgb(0,0,0);stroke-width:1" />
<line x1="569" y1="637" x2="1014" y2="598" style="stroke:rgb(0,0,0);stroke-width:1" />
<line x1="1014" y1="598" x2="750" y2="165" style="stroke:rgb(0,0,0);stroke-width:1" />
<line x1="750" y1="165" x2="569" y2="637" style="stroke:rgb(0,0,0);stroke-width:1" />
<line x1="1014" y1="598" x2="815" y2="558" style="stroke:rgb(0,0,0);stroke-width:1" />
<line x1="815" y1="558" x2="750" y2="165" style="stroke:rgb(0,0,0);stroke-width:1" />
<line x1="750" y1="165" x2="1014" y2="598" style="stroke:rgb(0,0,0);stroke-width:1" />
<line x1="815" y1="558" x2="580" y2="568" style="stroke:rgb(0,0,0);stroke-width:1" />
<line x1="580" y1="568" x2="750" y2="165" style="stroke:rgb(0,0,0);stroke-width:1" />
<line x1="750" y1="165" x2="815" y2="558" style="stroke:rgb(0,0,0);stroke-width:1" />
</svg>
