<svg version="1.1" xmlns:xlink="http://www.w3.org/1999/xlink" xmlns="http://www.w3.org/2000/svg" height="844" width="1500">
<line x1="715" y1="557" x2="498" y2="588" style="stroke:rgb(0,0,0);stroke-width:1" />
<line x1="498" y1="588" x2="853" y2="646" style="stroke:rgb(0,0,0);stroke-width:1" />
<line x1="853" y1="646" x2="715" y2="557" style="stroke:rgb(0,0,0);stroke-width:1" />
<line x1="715" y1="557" x2="949" y2="573" style="stroke:rgb(0,0,0);stroke-width:1" />
<line x1="949" y1="573" x2="853" y2="646" style="stroke:rgb(0,0,0);stroke-width:1" />
<line x1="853" y1="646" x2="715" y2="557" style="stroke:rgb(0,0,0);stroke-width:1" />
<line x1="715" y1="557" x2="498" y2="588" style="stroke:rgb(0,0,0);stroke-width:1" />
<line x1="498" y1="588" x2="750" y2="165" style="stroke:rgb(0,0,0);stroke-width:1" />
<line x1="750" y1="165" x2="715" y2="557" style="stroke:rgb(0,0,0);stroke-width:1" />
<line x1="498" y1="588" x2="853" y2="646" style="stroke:rgb(0,0,0);stroke-width:1" />
<line x1="853" y1="646" x2="750" y2="165" style="stroke:rgb(0,0,0);stroke-width:1" />
<line x1="750" y1="165" x2="498" y2="588" style="stroke:rgb(0,0,0);stroke-width:1" />
<line x1="853" y1="646" x2="949" y2="573" style="stroke:rgb(0,0,0);stroke-width:1" />
<line x1="949" y1="573" x2="750" y2="165" style="stroke:rgb(0,0,0);stroke-width:1" />
<line x1="750" y1="165" x2="853" y2="646" style="stroke:rgb(0,0,0);stroke-width:1" />
<line x1="949" y1="573" x2="715" y2="557" style="stroke:rgb(0,0,0);stroke-width:1" />
<line x1="715" y1="557" x2="750" y2="165" style="stroke:rgb(0,0,0);stroke-width:1" />
<line x1="750" y1="165" x2="949" y2="573" style="stroke:rgb(0,0,0);stroke-width:1" />
</svg>
