<svg version="1.1" xmlns:xlink="http://www.w3.org/1999/xlink" xmlns="http://www.w3.org/2000/svg" height="844" width="1500">
<line x1="623" y1="562" x2="502" y2="620" style="stroke:rgb(0,0,0);stroke-width:1" />
<line x1="502" y1="620" x2="1008" y2="614" style="stroke:rgb(0,0,0);stroke-width:1" />
<line x1="1008" y1="614" x2="623" y2="562" style="stroke:rgb(0,0,0);stroke-width:1" />
<line x1="623" y1="562" x2="860" y2="561" style="stroke:rgb(0,0,0);stroke-width:1" />
<line x1="860" y1="561" x2="1008" y2="614" style="stroke:rgb(0,0,0);stroke-width:1" />
<line x1="1008" y1="614" x2="623" y2="562" style="stroke:rgb(0,0,0);stroke-width:1" />
<line x1="623" y1="562" x2="502" y2="620" style="stroke:rgb(0,0,0);stroke-width:1" />
<line x1="502" y1="620" x2="750" y2="165" style="stroke:rgb(0,0,0);stroke-width:1" />
<line x1="750" y1="165" x2="623" y2="562" style="stroke:rgb(0,0,0);stroke-width:1" />
<line x1="502" y1="620" x2="1008" y2="614" style="stroke:rgb(0,0,0);stroke-width:1" />
<line x1="1008" y1="614" x2="750" y2="165" style="stroke:rgb(0,0,0);stroke-width:1" />
<line x1="750" y1="165" x2="502" y2="620" style="stroke:rgb(0,0,0);stroke-width:1" />
<line x1="1008" y1="614" x2="860" y2="561" style="stroke:rgb(0,0,0);stroke-width:1" />
<line x1="860" y1="561" x2="750" y2="165" style="stroke:rgb(0,0,0);stroke-width:1" />
<line x1="750" y1="165" x2="1008" y2="614" style="stroke:rgb(0,0,0);stroke-width:1" />
<line x1="860" y1="561" x2="623" y2="562" style="stroke:rgb(0,0,0);stroke-width:1" />
<line x1="623" y1="562" x2="750" y2="165" style="stroke:rgb(0,0,0);stroke-width:1" />
<line x1="750" y1="165" x2="860" y2="561" style="stroke:rgb(0,0,0);stroke-width:1" />
</svg>
