<svg version="1.1" xmlns:xlink="http://www.w3.org/1999/xlink" xmlns="http://www.w3.org/2000/svg" height="844" width="1500">
<line x1="572" y1="569" x2="586" y2="640" style="stroke:rgb(0,0,0);stroke-width:1" />
<line x1="586" y1="640" x2="1012" y2="595" style="stroke:rgb(0,0,0);stroke-width:1" />
<line x1="1012" y1="595" x2="572" y2="569" style="stroke:rgb(0,0,0);stroke-width:1" />
<line x1="572" y1="569" x2="807" y2="558" style="stroke:rgb(0,0,0);stroke-width:1" />
<line x1="807" y1="558" x2="1012" y2="595" style="stroke:rgb(0,0,0);stroke-width:1" />
<line x1="1012" y1="595" x2="572" y2="569" style="stroke:rgb(0,0,0);stroke-width:1" />
<line x1="572" y1="569" x2="586" y2="640" style="stroke:rgb(0,0,0);stroke-width:1" />
<line x1="586" y1="640" x2="750" y2="165" style="stroke:rgb(0,0,0);stroke-width:1" />
<line x1="750" y1="165" x2="572" y2="569" style="stroke:rgb(0,0,0);stroke-width:1" />
<line x1="586" y1="640" x2="1012" y2="595" style="stroke:rgb(0,0,0);stroke-width:1" />
<line x1="1012" y1="595" x2="750" y2="165" style="stroke:rgb(0,0,0);stroke-width:1" />
<line x1="750" y1="165" x2="586" y2="640" style="stroke:rgb(0,0,0);stroke-width:1" />
<line x1="1012" y1="595" x2="807" y2="558" style="stroke:rgb(0,0,0);stroke-width:1" />
<line x1="807" y1="558" x2="750" y2="165" style="stroke:rgb(0,0,0);stroke-width:1" />
<line x1="750" y1="165" x2="1012" y2="595" style="stroke:rgb(0,0,0);stroke-width:1" />
<line x1="807" y1="558" x2="572" y2="569" style="stroke:rgb(0,0,0);stroke-width:1" />
<line x1="572" y1="569" x2="750" y2="165" style="stroke:rgb(0,0,0);stroke-width:1" />
<line x1="750" y1="165" x2="807" y2="558" style="stroke:rgb(0,0,0);stroke-width:1" />
</svg>
