<svg version="1.1" xmlns:xlink="http://www.w3.org/1999/xlink" xmlns="http://www.w3.org/2000/svg" height="844" width="1500">
<line x1="867" y1="645" x2="944" y2="572" style="stroke:rgb(0,0,0);stroke-width:1" />
<line x1="944" y1="572" x2="710" y2="557" style="stroke:rgb(0,0,0);stroke-width:1" />
<line x1="710" y1="557" x2="867" y2="645" style="stroke:rgb(0,0,0);stroke-width:1" />
<line x1="867" y1="645" x2="495" y2="590" style="stroke:rgb(0,0,0);stroke-width:1" />
<line x1="495" y1="590" x2="710" y2="557" style="stroke:rgb(0,0,0);stroke-width:1" />
<line x1="710" y1="557" x2="867" y2="645" style="stroke:rgb(0,0,0);stroke-width:1" />
<line x1="867" y1="645" x2="944" y2="572" style="stroke:rgb(0,0,0);stroke-width:1" />
<line x1="944" y1="572" x2="750" y2="165" style="stroke:rgb(0,0,0);stroke-width:1" />
<line x1="750" y1="165" x2="867" y2="645" style="stroke:rgb(0,0,0);stroke-width:1" />
<line x1="944" y1="572" x2="710" y2="557" style="stroke:rgb(0,0,0);stroke-width:1" />
<line x1="710" y1="557" x2="750" y2="165" style="stroke:rgb(0,0,0);stroke-width:1" />
<line x1="750" y1="165" x2="944" y2="572" style="stroke:rgb(0,0,0);stroke-width:1" />
<line x1="710" y1="557" x2="495" y2="590" style="stroke:rgb(0,0,0);stroke-width:1" />
<line x1="495" y1="590" x2="750" y2="165" style="stroke:rgb(0,0,0);stroke-width:1" />
<line x1="750" y1="165" x2="710" y2="557" style="stroke:rgb(0,0,0);stroke-width:1" />
<line x1="495" y1="590" x2="867" y2="645" style="stroke:rgb(0,0,0);stroke-width:1" />
<line x1="867" y1="645" x2="750" y2="165" style="stroke:rgb(0,0,0);stroke-width:1" />
<line x1="750" y1="165" x2="495" y2="590" style="stroke:rgb(0,0,0);stroke-width:1" />
</svg>
