<svg version="1.1" xmlns:xlink="http://www.w3.org/1999/xlink" xmlns="http://www.w3.org/2000/svg" height="844" width="1500">
<line x1="969" y1="577" x2="739" y2="557" style="stroke:rgb(0,0,0);stroke-width:1" />
<line x1="739" y1="557" x2="513" y2="582" style="stroke:rgb(0,0,0);stroke-width:1" />
<line x1="513" y1="582" x2="969" y2="577" style="stroke:rgb(0,0,0);stroke-width:1" />
<line x1="969" y1="577" x2="782" y2="649" style="stroke:rgb(0,0,0);stroke-width:1" />
<line x1="782" y1="649" x2="513" y2="582" style="stroke:rgb(0,0,0);stroke-width:1" />
<line x1="513" y1="582" x2="969" y2="577" style="stroke:rgb(0,0,0);stroke-width:1" />
<line x1="969" y1="577" x2="739" y2="557" style="stroke:rgb(0,0,0);stroke-width:1" />
<line x1="739" y1="557" x2="750" y2="165" style="stroke:rgb(0,0,0);stroke-width:1" />
<line x1="750" y1="165" x2="969" y2="577" style="stroke:rgb(0,0,0);stroke-width:1" />
<line x1="739" y1="557" x2="513" y2="582" style="stroke:rgb(0,0,0);stroke-width:1" />
<line x1="513" y1="582" x2="750" y2="165" style="stroke:rgb(0,0,0);stroke-width:1" />
<line x1="750" y1="165" x2="739" y2="557" style="stroke:rgb(0,0,0);stroke-width:1" />
<line x1="513" y1="582" x2="782" y2="649" style="stroke:rgb(0,0,0);stroke-width:1" />
<line x1="782" y1="649" x2="750" y2="165" style="stroke:rgb(0,0,0);stroke-width:1" />
<line x1="750" y1="165" x2="513" y2="582" style="stroke:rgb(0,0,0);stroke-width:1" />
<line x1="782" y1="649" x2="969" y2="577" style="stroke:rgb(0,0,0);stroke-width:1" />
<line x1="969" y1="577" x2="750" y2="165" style="stroke:rgb(0,0,0);stroke-width:1" />
<line x1="750" y1="165" x2="782" y2="649" style="stroke:rgb(0,0,0);stroke-width:1" />
</svg>
