<svg version="1.1" xmlns:xlink="http://www.w3.org/1999/xlink" xmlns="http://www.w3.org/2000/svg" height="844" width="1500">
<line x1="692" y1="558" x2="487" y2="595" style="stroke:rgb(0,0,0);stroke-width:1" />
<line x1="487" y1="595" x2="913" y2="640" style="stroke:rgb(0,0,0);stroke-width:1" />
<line x1="913" y1="640" x2="692" y2="558" style="stroke:rgb(0,0,0);stroke-width:1" />
<line x1="692" y1="558" x2="927" y2="569" style="stroke:rgb(0,0,0);stroke-width:1" />
<line x1="927" y1="569" x2="913" y2="640" style="stroke:rgb(0,0,0);stroke-width:1" />
<line x1="913" y1="640" x2="692" y2="558" style="stroke:rgb(0,0,0);stroke-width:1" />
<line x1="692" y1="558" x2="487" y2="595" style="stroke:rgb(0,0,0);stroke-width:1" />
<line x1="487" y1="595" x2="750" y2="165" style="stroke:rgb(0,0,0);stroke-width:1" />
<line x1="750" y1="165" x2="692" y2="558" style="stroke:rgb(0,0,0);stroke-width:1" />
<line x1="487" y1="595" x2="913" y2="640" style="stroke:rgb(0,0,0);stroke-width:1" />
<line x1="913" y1="640" x2="750" y2="165" style="stroke:rgb(0,0,0);stroke-width:1" />
<line x1="750" y1="165" x2="487" y2="595" style="stroke:rgb(0,0,0);stroke-width:1" />
<line x1="913" y1="640" x2="927" y2="569" style="stroke:rgb(0,0,0);stroke-width:1" />
<line x1="927" y1="569" x2="750" y2="165" style="stroke:rgb(0,0,0);stroke-width:1" />
<line x1="750" y1="165" x2="913" y2="640" style="stroke:rgb(0,0,0);stroke-width:1" />
<line x1="927" y1="569" x2="692" y2="558" style="stroke:rgb(0,0,0);stroke-width:1" />
<line x1="692" y1="558" x2="750" y2="165" style="stroke:rgb(0,0,0);stroke-width:1" />
<line x1="750" y1="165" x2="927" y2="569" style="stroke:rgb(0,0,0);stroke-width:1" />
</svg>
