<svg version="1.1" xmlns:xlink="http://www.w3.org/1999/xlink" xmlns="http://www.w3.org/2000/svg" height="844" width="1500">
<line x1="686" y1="558" x2="486" y2="597" style="stroke:rgb(0,0,0);stroke-width:1" />
<line x1="486" y1="597" x2="925" y2="638" style="stroke:rgb(0,0,0);stroke-width:1" />
<line x1="925" y1="638" x2="686" y2="558" style="stroke:rgb(0,0,0);stroke-width:1" />
<line x1="686" y1="558" x2="922" y2="568" style="stroke:rgb(0,0,0);stroke-width:1" />
<line x1="922" y1="568" x2="925" y2="638" style="stroke:rgb(0,0,0);stroke-width:1" />
<line x1="925" y1="638" x2="686" y2="558" style="stroke:rgb(0,0,0);stroke-width:1" />
<line x1="686" y1="558" x2="486" y2="597" style="stroke:rgb(0,0,0);stroke-width:1" />
<line x1="486" y1="597" x2="750" y2="165" style="stroke:rgb(0,0,0);stroke-width:1" />
<line x1="750" y1="165" x2="686" y2="558" style="stroke:rgb(0,0,0);stroke-width:1" />
<line x1="486" y1="597" x2="925" y2="638" style="stroke:rgb(0,0,0);stroke-width:1" />
<line x1="925" y1="638" x2="750" y2="165" style="stroke:rgb(0,0,0);stroke-width:1" />
<line x1="750" y1="165" x2="486" y2="597" style="stroke:rgb(0,0,0);stroke-width:1" />
<line x1="925" y1="638" x2="922" y2="568" style="stroke:rgb(0,0,0);stroke-width:1" />
<line x1="922" y1="568" x2="750" y2="165" style="stroke:rgb(0,0,0);stroke-width:1" />
<line x1="750" y1="165" x2="925" y2="638" style="stroke:rgb(0,0,0);stroke-width:1" />
<line x1="922" y1="568" x2="686" y2="558" style="stroke:rgb(0,0,0);stroke-width:1" />
<line x1="686" y1="558" x2="750" y2="165" style="stroke:rgb(0,0,0);stroke-width:1" />
<line x1="750" y1="165" x2="922" y2="568" style="stroke:rgb(0,0,0);stroke-width:1" />
</svg>
