<svg version="1.1" xmlns:xlink="http://www.w3.org/1999/xlink" xmlns="http://www.w3.org/2000/svg" height="844" width="1500">
<line x1="582" y1="567" x2="563" y2="636" style="stroke:rgb(0,0,0);stroke-width:1" />
<line x1="563" y1="636" x2="1014" y2="599" style="stroke:rgb(0,0,0);stroke-width:1" />
<line x1="1014" y1="599" x2="582" y2="567" style="stroke:rgb(0,0,0);stroke-width:1" />
<line x1="582" y1="567" x2="818" y2="558" style="stroke:rgb(0,0,0);stroke-width:1" />
<line x1="818" y1="558" x2="1014" y2="599" style="stroke:rgb(0,0,0);stroke-width:1" />
<line x1="1014" y1="599" x2="582" y2="567" style="stroke:rgb(0,0,0);stroke-width:1" />
<line x1="582" y1="567" x2="563" y2="636" style="stroke:rgb(0,0,0);stroke-width:1" />
<line x1="563" y1="636" x2="750" y2="165" style="stroke:rgb(0,0,0);stroke-width:1" />
<line x1="750" y1="165" x2="582" y2="567" style="stroke:rgb(0,0,0);stroke-width:1" />
<line x1="563" y1="636" x2="1014" y2="599" style="stroke:rgb(0,0,0);stroke-width:1" />
<line x1="1014" y1="599" x2="750" y2="165" style="stroke:rgb(0,0,0);stroke-width:1" />
<line x1="750" y1="165" x2="563" y2="636" style="stroke:rgb(0,0,0);stroke-width:1" />
<line x1="1014" y1="599" x2="818" y2="558" style="stroke:rgb(0,0,0);stroke-width:1" />
<line x1="818" y1="558" x2="750" y2="165" style="stroke:rgb(0,0,0);stroke-width:1" />
<line x1="750" y1="165" x2="1014" y2="599" style="stroke:rgb(0,0,0);stroke-width:1" />
<line x1="818" y1="558" x2="582" y2="567" style="stroke:rgb(0,0,0);stroke-width:1" />
<line x1="582" y1="567" x2="750" y2="165" style="stroke:rgb(0,0,0);stroke-width:1" />
<line x1="750" y1="165" x2="818" y2="558" style="stroke:rgb(0,0,0);stroke-width:1" />
</svg>
