<svg version="1.1" xmlns:xlink="http://www.w3.org/1999/xlink" xmlns="http://www.w3.org/2000/svg" height="844" width="1500">
<line x1="625" y1="644" x2="1005" y2="590" style="stroke:rgb(0,0,0);stroke-width:1" />
<line x1="1005" y1="590" x2="792" y2="558" style="stroke:rgb(0,0,0);stroke-width:1" />
<line x1="792" y1="558" x2="625" y2="644" style="stroke:rgb(0,0,0);stroke-width:1" />
<line x1="625" y1="644" x2="557" y2="571" style="stroke:rgb(0,0,0);stroke-width:1" />
<line x1="557" y1="571" x2="792" y2="558" style="stroke:rgb(0,0,0);stroke-width:1" />
<line x1="792" y1="558" x2="625" y2="644" style="stroke:rgb(0,0,0);stroke-width:1" />
<line x1="625" y1="644" x2="1005" y2="590" style="stroke:rgb(0,0,0);stroke-width:1" />
<line x1="1005" y1="590" x2="750" y2="165" style="stroke:rgb(0,0,0);stroke-width:1" />
<line x1="750" y1="165" x2="625" y2="644" style="stroke:rgb(0,0,0);stroke-width:1" />
<line x1="1005" y1="590" x2="792" y2="558" style="stroke:rgb(0,0,0);stroke-width:1" />
<line x1="792" y1="558" x2="750" y2="165" style="stroke:rgb(0,0,0);stroke-width:1" />
<line x1="750" y1="165" x2="1005" y2="590" style="stroke:rgb(0,0,0);stroke-width:1" />
<line x1="792" y1="558" x2="557" y2="571" style="stroke:rgb(0,0,0);stroke-width:1" />
<line x1="557" y1="571" x2="750" y2="165" style="stroke:rgb(0,0,0);stroke-width:1" />
<line x1="750" y1="165" x2="792" y2="558" style="stroke:rgb(0,0,0);stroke-width:1" />
<line x1="557" y1="571" x2="625" y2="644" style="stroke:rgb(0,0,0);stroke-width:1" />
<line x1="625" y1="644" x2="750" y2="165" style="stroke:rgb(0,0,0);stroke-width:1" />
<line x1="750" y1="165" x2="557" y2="571" style="stroke:rgb(0,0,0);stroke-width:1" />
</svg>
