<svg version="1.1" xmlns:xlink="http://www.w3.org/1999/xlink" xmlns="http://www.w3.org/2000/svg" height="844" width="1500">
<line x1="983" y1="626" x2="889" y2="564" style="stroke:rgb(0,0,0);stroke-width:1" />
<line x1="889" y1="564" x2="652" y2="560" style="stroke:rgb(0,0,0);stroke-width:1" />
<line x1="652" y1="560" x2="983" y2="626" style="stroke:rgb(0,0,0);stroke-width:1" />
<line x1="983" y1="626" x2="485" y2="609" style="stroke:rgb(0,0,0);stroke-width:1" />
<line x1="485" y1="609" x2="652" y2="560" style="stroke:rgb(0,0,0);stroke-width:1" />
<line x1="652" y1="560" x2="983" y2="626" style="stroke:rgb(0,0,0);stroke-width:1" />
<line x1="983" y1="626" x2="889" y2="564" style="stroke:rgb(0,0,0);stroke-width:1" />
<line x1="889" y1="564" x2="750" y2="165" style="stroke:rgb(0,0,0);stroke-width:1" />
<line x1="750" y1="165" x2="983" y2="626" style="stroke:rgb(0,0,0);stroke-width:1" />
<line x1="889" y1="564" x2="652" y2="560" style="stroke:rgb(0,0,0);stroke-width:1" />
<line x1="652" y1="560" x2="750" y2="165" style="stroke:rgb(0,0,0);stroke-width:1" />
<line x1="750" y1="165" x2="889" y2="564" style="stroke:rgb(0,0,0);stroke-width:1" />
<line x1="652" y1="560" x2="485" y2="609" style="stroke:rgb(0,0,0);stroke-width:1" />
<line x1="485" y1="609" x2="750" y2="165" style="stroke:rgb(0,0,0);stroke-width:1" />
<line x1="750" y1="165" x2="652" y2="560" style="stroke:rgb(0,0,0);stroke-width:1" />
<line x1="485" y1="609" x2="983" y2="626" style="stroke:rgb(0,0,0);stroke-width:1" />
<line x1="983" y1="626" x2="750" y2="165" style="stroke:rgb(0,0,0);stroke-width:1" />
<line x1="750" y1="165" x2="485" y2="609" style="stroke:rgb(0,0,0);stroke-width:1" />
</svg>
