<svg version="1.1" xmlns:xlink="http://www.w3.org/1999/xlink" xmlns="http://www.w3.org/2000/svg" height="844" width="1500">
<line x1="1015" y1="606" x2="839" y2="560" style="stroke:rgb(0,0,0);stroke-width:1" />
<line x1="839" y1="560" x2="603" y2="565" style="stroke:rgb(0,0,0);stroke-width:1" />
<line x1="603" y1="565" x2="1015" y2="606" style="stroke:rgb(0,0,0);stroke-width:1" />
<line x1="1015" y1="606" x2="527" y2="629" style="stroke:rgb(0,0,0);stroke-width:1" />
<line x1="527" y1="629" x2="603" y2="565" style="stroke:rgb(0,0,0);stroke-width:1" />
<line x1="603" y1="565" x2="1015" y2="606" style="stroke:rgb(0,0,0);stroke-width:1" />
<line x1="1015" y1="606" x2="839" y2="560" style="stroke:rgb(0,0,0);stroke-width:1" />
<line x1="839" y1="560" x2="750" y2="165" style="stroke:rgb(0,0,0);stroke-width:1" />
<line x1="750" y1="165" x2="1015" y2="606" style="stroke:rgb(0,0,0);stroke-width:1" />
<line x1="839" y1="560" x2="603" y2="565" style="stroke:rgb(0,0,0);stroke-width:1" />
<line x1="603" y1="565" x2="750" y2="165" style="stroke:rgb(0,0,0);stroke-width:1" />
<line x1="750" y1="165" x2="839" y2="560" style="stroke:rgb(0,0,0);stroke-width:1" />
<line x1="603" y1="565" x2="527" y2="629" style="stroke:rgb(0,0,0);stroke-width:1" />
<line x1="527" y1="629" x2="750" y2="165" style="stroke:rgb(0,0,0);stroke-width:1" />
<line x1="750" y1="165" x2="603" y2="565" style="stroke:rgb(0,0,0);stroke-width:1" />
<line x1="527" y1="629" x2="1015" y2="606" style="stroke:rgb(0,0,0);stroke-width:1" />
<line x1="1015" y1="606" x2="750" y2="165" style="stroke:rgb(0,0,0);stroke-width:1" />
<line x1="750" y1="165" x2="527" y2="629" style="stroke:rgb(0,0,0);stroke-width:1" />
</svg>
