<svg version="1.1" xmlns:xlink="http://www.w3.org/1999/xlink" xmlns="http://www.w3.org/2000/svg" height="844" width="1500">
<line x1="978" y1="579" x2="749" y2="557" style="stroke:rgb(0,0,0);stroke-width:1" />
<line x1="749" y1="557" x2="521" y2="579" style="stroke:rgb(0,0,0);stroke-width:1" />
<line x1="521" y1="579" x2="978" y2="579" style="stroke:rgb(0,0,0);stroke-width:1" />
<line x1="978" y1="579" x2="750" y2="650" style="stroke:rgb(0,0,0);stroke-width:1" />
<line x1="750" y1="650" x2="521" y2="579" style="stroke:rgb(0,0,0);stroke-width:1" />
<line x1="521" y1="579" x2="978" y2="579" style="stroke:rgb(0,0,0);stroke-width:1" />
<line x1="978" y1="579" x2="749" y2="557" style="stroke:rgb(0,0,0);stroke-width:1" />
<line x1="749" y1="557" x2="750" y2="165" style="stroke:rgb(0,0,0);stroke-width:1" />
<line x1="750" y1="165" x2="978" y2="579" style="stroke:rgb(0,0,0);stroke-width:1" />
<line x1="749" y1="557" x2="521" y2="579" style="stroke:rgb(0,0,0);stroke-width:1" />
<line x1="521" y1="579" x2="750" y2="165" style="stroke:rgb(0,0,0);stroke-width:1" />
<line x1="750" y1="165" x2="749" y2="557" style="stroke:rgb(0,0,0);stroke-width:1" />
<line x1="521" y1="579" x2="750" y2="650" style="stroke:rgb(0,0,0);stroke-width:1" />
<line x1="750" y1="650" x2="750" y2="165" style="stroke:rgb(0,0,0);stroke-width:1" />
<line x1="750" y1="165" x2="521" y2="579" style="stroke:rgb(0,0,0);stroke-width:1" />
<line x1="750" y1="650" x2="978" y2="579" style="stroke:rgb(0,0,0);stroke-width:1" />
<line x1="978" y1="579" x2="750" y2="165" style="stroke:rgb(0,0,0);stroke-width:1" />
<line x1="750" y1="165" x2="750" y2="650" style="stroke:rgb(0,0,0);stroke-width:1" />
</svg>
