<svg version="1.1" xmlns:xlink="http://www.w3.org/1999/xlink" xmlns="http://www.w3.org/2000/svg" height="844" width="1500">
<line x1="488" y1="612" x2="992" y2="622" style="stroke:rgb(0,0,0);stroke-width:1" />
<line x1="992" y1="622" x2="881" y2="563" style="stroke:rgb(0,0,0);stroke-width:1" />
<line x1="881" y1="563" x2="488" y2="612" style="stroke:rgb(0,0,0);stroke-width:1" />
<line x1="488" y1="612" x2="644" y2="561" style="stroke:rgb(0,0,0);stroke-width:1" />
<line x1="644" y1="561" x2="881" y2="563" style="stroke:rgb(0,0,0);stroke-width:1" />
<line x1="881" y1="563" x2="488" y2="612" style="stroke:rgb(0,0,0);stroke-width:1" />
<line x1="488" y1="612" x2="992" y2="622" style="stroke:rgb(0,0,0);stroke-width:1" />
<line x1="992" y1="622" x2="750" y2="165" style="stroke:rgb(0,0,0);stroke-width:1" />
<line x1="750" y1="165" x2="488" y2="612" style="stroke:rgb(0,0,0);stroke-width:1" />
<line x1="992" y1="622" x2="881" y2="563" style="stroke:rgb(0,0,0);stroke-width:1" />
<line x1="881" y1="563" x2="750" y2="165" style="stroke:rgb(0,0,0);stroke-width:1" />
<line x1="750" y1="165" x2="992" y2="622" style="stroke:rgb(0,0,0);stroke-width:1" />
<line x1="881" y1="563" x2="644" y2="561" style="stroke:rgb(0,0,0);stroke-width:1" />
<line x1="644" y1="561" x2="750" y2="165" style="stroke:rgb(0,0,0);stroke-width:1" />
<line x1="750" y1="165" x2="881" y2="563" style="stroke:rgb(0,0,0);stroke-width:1" />
<line x1="644" y1="561" x2="488" y2="612" style="stroke:rgb(0,0,0);stroke-width:1" />
<line x1="488" y1="612" x2="750" y2="165" style="stroke:rgb(0,0,0);stroke-width:1" />
<line x1="750" y1="165" x2="644" y2="561" style="stroke:rgb(0,0,0);stroke-width:1" />
</svg>
