<svg version="1.1" xmlns:xlink="http://www.w3.org/1999/xlink" xmlns="http://www.w3.org/2000/svg" height="844" width="1500">
<line x1="831" y1="559" x2="595" y2="566" style="stroke:rgb(0,0,0);stroke-width:1" />
<line x1="595" y1="566" x2="539" y2="632" style="stroke:rgb(0,0,0);stroke-width:1" />
<line x1="539" y1="632" x2="831" y2="559" style="stroke:rgb(0,0,0);stroke-width:1" />
<line x1="831" y1="559" x2="1016" y2="603" style="stroke:rgb(0,0,0);stroke-width:1" />
<line x1="1016" y1="603" x2="539" y2="632" style="stroke:rgb(0,0,0);stroke-width:1" />
<line x1="539" y1="632" x2="831" y2="559" style="stroke:rgb(0,0,0);stroke-width:1" />
<line x1="831" y1="559" x2="595" y2="566" style="stroke:rgb(0,0,0);stroke-width:1" />
<line x1="595" y1="566" x2="750" y2="165" style="stroke:rgb(0,0,0);stroke-width:1" />
<line x1="750" y1="165" x2="831" y2="559" style="stroke:rgb(0,0,0);stroke-width:1" />
<line x1="595" y1="566" x2="539" y2="632" style="stroke:rgb(0,0,0);stroke-width:1" />
<line x1="539" y1="632" x2="750" y2="165" style="stroke:rgb(0,0,0);stroke-width:1" />
<line x1="750" y1="165" x2="595" y2="566" style="stroke:rgb(0,0,0);stroke-width:1" />
<line x1="539" y1="632" x2="1016" y2="603" style="stroke:rgb(0,0,0);stroke-width:1" />
<line x1="1016" y1="603" x2="750" y2="165" style="stroke:rgb(0,0,0);stroke-width:1" />
<line x1="750" y1="165" x2="539" y2="632" style="stroke:rgb(0,0,0);stroke-width:1" />
<line x1="1016" y1="603" x2="831" y2="559" style="stroke:rgb(0,0,0);stroke-width:1" />
<line x1="831" y1="559" x2="750" y2="165" style="stroke:rgb(0,0,0);stroke-width:1" />
<line x1="750" y1="165" x2="1016" y2="603" style="stroke:rgb(0,0,0);stroke-width:1" />
</svg>
