<svg version="1.1" xmlns:xlink="http://www.w3.org/1999/xlink" xmlns="http://www.w3.org/2000/svg" height="844" width="1500">
<line x1="941" y1="635" x2="914" y2="567" style="stroke:rgb(0,0,0);stroke-width:1" />
<line x1="914" y1="567" x2="679" y2="559" style="stroke:rgb(0,0,0);stroke-width:1" />
<line x1="679" y1="559" x2="941" y2="635" style="stroke:rgb(0,0,0);stroke-width:1" />
<line x1="941" y1="635" x2="484" y2="600" style="stroke:rgb(0,0,0);stroke-width:1" />
<line x1="484" y1="600" x2="679" y2="559" style="stroke:rgb(0,0,0);stroke-width:1" />
<line x1="679" y1="559" x2="941" y2="635" style="stroke:rgb(0,0,0);stroke-width:1" />
<line x1="941" y1="635" x2="914" y2="567" style="stroke:rgb(0,0,0);stroke-width:1" />
<line x1="914" y1="567" x2="750" y2="165" style="stroke:rgb(0,0,0);stroke-width:1" />
<line x1="750" y1="165" x2="941" y2="635" style="stroke:rgb(0,0,0);stroke-width:1" />
<line x1="914" y1="567" x2="679" y2="559" style="stroke:rgb(0,0,0);stroke-width:1" />
<line x1="679" y1="559" x2="750" y2="165" style="stroke:rgb(0,0,0);stroke-width:1" />
<line x1="750" y1="165" x2="914" y2="567" style="stroke:rgb(0,0,0);stroke-width:1" />
<line x1="679" y1="559" x2="484" y2="600" style="stroke:rgb(0,0,0);stroke-width:1" />
<line x1="484" y1="600" x2="750" y2="165" style="stroke:rgb(0,0,0);stroke-width:1" />
<line x1="750" y1="165" x2="679" y2="559" style="stroke:rgb(0,0,0);stroke-width:1" />
<line x1="484" y1="600" x2="941" y2="635" style="stroke:rgb(0,0,0);stroke-width:1" />
<line x1="941" y1="635" x2="750" y2="165" style="stroke:rgb(0,0,0);stroke-width:1" />
<line x1="750" y1="165" x2="484" y2="600" style="stroke:rgb(0,0,0);stroke-width:1" />
</svg>
