<svg version="1.1" xmlns:xlink="http://www.w3.org/1999/xlink" xmlns="http://www.w3.org/2000/svg" height="844" width="1500">
<line x1="924" y1="568" x2="689" y2="558" style="stroke:rgb(0,0,0);stroke-width:1" />
<line x1="689" y1="558" x2="487" y2="596" style="stroke:rgb(0,0,0);stroke-width:1" />
<line x1="487" y1="596" x2="924" y2="568" style="stroke:rgb(0,0,0);stroke-width:1" />
<line x1="924" y1="568" x2="919" y2="639" style="stroke:rgb(0,0,0);stroke-width:1" />
<line x1="919" y1="639" x2="487" y2="596" style="stroke:rgb(0,0,0);stroke-width:1" />
<line x1="487" y1="596" x2="924" y2="568" style="stroke:rgb(0,0,0);stroke-width:1" />
<line x1="924" y1="568" x2="689" y2="558" style="stroke:rgb(0,0,0);stroke-width:1" />
<line x1="689" y1="558" x2="750" y2="165" style="stroke:rgb(0,0,0);stroke-width:1" />
<line x1="750" y1="165" x2="924" y2="568" style="stroke:rgb(0,0,0);stroke-width:1" />
<line x1="689" y1="558" x2="487" y2="596" style="stroke:rgb(0,0,0);stroke-width:1" />
<line x1="487" y1="596" x2="750" y2="165" style="stroke:rgb(0,0,0);stroke-width:1" />
<line x1="750" y1="165" x2="689" y2="558" style="stroke:rgb(0,0,0);stroke-width:1" />
<line x1="487" y1="596" x2="919" y2="639" style="stroke:rgb(0,0,0);stroke-width:1" />
<line x1="919" y1="639" x2="750" y2="165" style="stroke:rgb(0,0,0);stroke-width:1" />
<line x1="750" y1="165" x2="487" y2="596" style="stroke:rgb(0,0,0);stroke-width:1" />
<line x1="919" y1="639" x2="924" y2="568" style="stroke:rgb(0,0,0);stroke-width:1" />
<line x1="924" y1="568" x2="750" y2="165" style="stroke:rgb(0,0,0);stroke-width:1" />
<line x1="750" y1="165" x2="919" y2="639" style="stroke:rgb(0,0,0);stroke-width:1" />
</svg>
