<svg version="1.1" xmlns:xlink="http://www.w3.org/1999/xlink" xmlns="http://www.w3.org/2000/svg" height="844" width="1500">
<line x1="958" y1="574" x2="726" y2="557" style="stroke:rgb(0,0,0);stroke-width:1" />
<line x1="726" y1="557" x2="504" y2="585" style="stroke:rgb(0,0,0);stroke-width:1" />
<line x1="504" y1="585" x2="958" y2="574" style="stroke:rgb(0,0,0);stroke-width:1" />
<line x1="958" y1="574" x2="822" y2="648" style="stroke:rgb(0,0,0);stroke-width:1" />
<line x1="822" y1="648" x2="504" y2="585" style="stroke:rgb(0,0,0);stroke-width:1" />
<line x1="504" y1="585" x2="958" y2="574" style="stroke:rgb(0,0,0);stroke-width:1" />
<line x1="958" y1="574" x2="726" y2="557" style="stroke:rgb(0,0,0);stroke-width:1" />
<line x1="726" y1="557" x2="750" y2="165" style="stroke:rgb(0,0,0);stroke-width:1" />
<line x1="750" y1="165" x2="958" y2="574" style="stroke:rgb(0,0,0);stroke-width:1" />
<line x1="726" y1="557" x2="504" y2="585" style="stroke:rgb(0,0,0);stroke-width:1" />
<line x1="504" y1="585" x2="750" y2="165" style="stroke:rgb(0,0,0);stroke-width:1" />
<line x1="750" y1="165" x2="726" y2="557" style="stroke:rgb(0,0,0);stroke-width:1" />
<line x1="504" y1="585" x2="822" y2="648" style="stroke:rgb(0,0,0);stroke-width:1" />
<line x1="822" y1="648" x2="750" y2="165" style="stroke:rgb(0,0,0);stroke-width:1" />
<line x1="750" y1="165" x2="504" y2="585" style="stroke:rgb(0,0,0);stroke-width:1" />
<line x1="822" y1="648" x2="958" y2="574" style="stroke:rgb(0,0,0);stroke-width:1" />
<line x1="958" y1="574" x2="750" y2="165" style="stroke:rgb(0,0,0);stroke-width:1" />
<line x1="750" y1="165" x2="822" y2="648" style="stroke:rgb(0,0,0);stroke-width:1" />
</svg>
