<svg version="1.1" xmlns:xlink="http://www.w3.org/1999/xlink" xmlns="http://www.w3.org/2000/svg" height="844" width="1500">
<line x1="763" y1="557" x2="532" y2="577" style="stroke:rgb(0,0,0);stroke-width:1" />
<line x1="532" y1="577" x2="709" y2="649" style="stroke:rgb(0,0,0);stroke-width:1" />
<line x1="709" y1="649" x2="763" y2="557" style="stroke:rgb(0,0,0);stroke-width:1" />
<line x1="763" y1="557" x2="987" y2="582" style="stroke:rgb(0,0,0);stroke-width:1" />
<line x1="987" y1="582" x2="709" y2="649" style="stroke:rgb(0,0,0);stroke-width:1" />
<line x1="709" y1="649" x2="763" y2="557" style="stroke:rgb(0,0,0);stroke-width:1" />
<line x1="763" y1="557" x2="532" y2="577" style="stroke:rgb(0,0,0);stroke-width:1" />
<line x1="532" y1="577" x2="750" y2="165" style="stroke:rgb(0,0,0);stroke-width:1" />
<line x1="750" y1="165" x2="763" y2="557" style="stroke:rgb(0,0,0);stroke-width:1" />
<line x1="532" y1="577" x2="709" y2="649" style="stroke:rgb(0,0,0);stroke-width:1" />
<line x1="709" y1="649" x2="750" y2="165" style="stroke:rgb(0,0,0);stroke-width:1" />
<line x1="750" y1="165" x2="532" y2="577" style="stroke:rgb(0,0,0);stroke-width:1" />
<line x1="709" y1="649" x2="987" y2="582" style="stroke:rgb(0,0,0);stroke-width:1" />
<line x1="987" y1="582" x2="750" y2="165" style="stroke:rgb(0,0,0);stroke-width:1" />
<line x1="750" y1="165" x2="709" y2="649" style="stroke:rgb(0,0,0);stroke-width:1" />
<line x1="987" y1="582" x2="763" y2="557" style="stroke:rgb(0,0,0);stroke-width:1" />
<line x1="763" y1="557" x2="750" y2="165" style="stroke:rgb(0,0,0);stroke-width:1" />
<line x1="750" y1="165" x2="987" y2="582" style="stroke:rgb(0,0,0);stroke-width:1" />
</svg>
