<svg version="1.1" xmlns:xlink="http://www.w3.org/1999/xlink" xmlns="http://www.w3.org/2000/svg" height="844" width="1500">
<line x1="976" y1="628" x2="894" y2="564" style="stroke:rgb(0,0,0);stroke-width:1" />
<line x1="894" y1="564" x2="657" y2="560" style="stroke:rgb(0,0,0);stroke-width:1" />
<line x1="657" y1="560" x2="976" y2="628" style="stroke:rgb(0,0,0);stroke-width:1" />
<line x1="976" y1="628" x2="484" y2="607" style="stroke:rgb(0,0,0);stroke-width:1" />
<line x1="484" y1="607" x2="657" y2="560" style="stroke:rgb(0,0,0);stroke-width:1" />
<line x1="657" y1="560" x2="976" y2="628" style="stroke:rgb(0,0,0);stroke-width:1" />
<line x1="976" y1="628" x2="894" y2="564" style="stroke:rgb(0,0,0);stroke-width:1" />
<line x1="894" y1="564" x2="750" y2="165" style="stroke:rgb(0,0,0);stroke-width:1" />
<line x1="750" y1="165" x2="976" y2="628" style="stroke:rgb(0,0,0);stroke-width:1" />
<line x1="894" y1="564" x2="657" y2="560" style="stroke:rgb(0,0,0);stroke-width:1" />
<line x1="657" y1="560" x2="750" y2="165" style="stroke:rgb(0,0,0);stroke-width:1" />
<line x1="750" y1="165" x2="894" y2="564" style="stroke:rgb(0,0,0);stroke-width:1" />
<line x1="657" y1="560" x2="484" y2="607" style="stroke:rgb(0,0,0);stroke-width:1" />
<line x1="484" y1="607" x2="750" y2="165" style="stroke:rgb(0,0,0);stroke-width:1" />
<line x1="750" y1="165" x2="657" y2="560" style="stroke:rgb(0,0,0);stroke-width:1" />
<line x1="484" y1="607" x2="976" y2="628" style="stroke:rgb(0,0,0);stroke-width:1" />
<line x1="976" y1="628" x2="750" y2="165" style="stroke:rgb(0,0,0);stroke-width:1" />
<line x1="750" y1="165" x2="484" y2="607" style="stroke:rgb(0,0,0);stroke-width:1" />
</svg>
